solid OpenSCAD_Model
  facet normal -0 0 -1
    outer loop
      vertex 2.76985 -21.9257 0
      vertex 1.38766 -22.0564 0
      vertex 1.77698 -16.9069 0
    endloop
  endfacet
  facet normal 0 -0 -1
    outer loop
      vertex 5.25328 -16.168 0
      vertex 5.49603 -21.4057 0
      vertex 4.14111 -21.7085 0
    endloop
  endfacet
  facet normal -0 0 -1
    outer loop
      vertex 6.82927 -21.0183 0
      vertex 5.49603 -21.4057 0
      vertex 5.25328 -16.168 0
    endloop
  endfacet
  facet normal -0 0 -1
    outer loop
      vertex 9.40971 -19.9967 0
      vertex 8.13554 -20.548 0
      vertex 5.25328 -16.168 0
    endloop
  endfacet
  facet normal 0 -0 -1
    outer loop
      vertex 8.5 -14.7224 0
      vertex 9.40971 -19.9967 0
      vertex 5.25328 -16.168 0
    endloop
  endfacet
  facet normal -0 0 -1
    outer loop
      vertex 11.8418 -18.6596 0
      vertex 10.6467 -19.3664 0
      vertex 8.5 -14.7224 0
    endloop
  endfacet
  facet normal 0 0 -1
    outer loop
      vertex 13.7533 -9.99234 0
      vertex 17.8793 -12.9901 0
      vertex 17.0283 -14.0871 0
    endloop
  endfacet
  facet normal 0 0 -1
    outer loop
      vertex 11.3752 -12.6335 0
      vertex 16.1102 -15.1285 0
      vertex 15.1285 -16.1102 0
    endloop
  endfacet
  facet normal 0 0 -1
    outer loop
      vertex 11.3752 -12.6335 0
      vertex 13.7533 -9.99234 0
      vertex 16.1102 -15.1285 0
    endloop
  endfacet
  facet normal -0 0 -1
    outer loop
      vertex 14.0871 -17.0283 0
      vertex 12.9901 -17.8793 0
      vertex 11.3752 -12.6335 0
    endloop
  endfacet
  facet normal 0 0 -1
    outer loop
      vertex 20.548 -8.13554 0
      vertex 15.5303 -6.91452 0
      vertex 21.0183 -6.82927 0
    endloop
  endfacet
  facet normal -0 0 -1
    outer loop
      vertex 19.3664 -10.6467 0
      vertex 18.6596 -11.8418 0
      vertex 13.7533 -9.99234 0
    endloop
  endfacet
  facet normal 0 0 -1
    outer loop
      vertex 15.5303 -6.91452 0
      vertex 19.9967 -9.40971 0
      vertex 19.3664 -10.6467 0
    endloop
  endfacet
  facet normal 0 0 -1
    outer loop
      vertex 13.7533 -9.99234 0
      vertex 15.5303 -6.91452 0
      vertex 19.3664 -10.6467 0
    endloop
  endfacet
  facet normal -0 0 -1
    outer loop
      vertex 22.0564 1.38766 0
      vertex 17 0 0
      vertex 21.9257 2.76985 0
    endloop
  endfacet
  facet normal -0 0 -1
    outer loop
      vertex 21.9257 -2.76985 0
      vertex 16.6285 -3.53448 0
      vertex 17 0 0
    endloop
  endfacet
  facet normal 0 0 -1
    outer loop
      vertex 16.6285 -3.53448 0
      vertex 21.7085 -4.14111 0
      vertex 21.4057 -5.49603 0
    endloop
  endfacet
  facet normal -0 0 -1
    outer loop
      vertex 22.0564 -1.38766 0
      vertex 21.9257 -2.76985 0
      vertex 17 0 0
    endloop
  endfacet
  facet normal 0 0 -1
    outer loop
      vertex 21.9257 -2.76985 0
      vertex 21.7085 -4.14111 0
      vertex 16.6285 -3.53448 0
    endloop
  endfacet
  facet normal -0 0 -1
    outer loop
      vertex 21.0183 6.82927 0
      vertex 16.6285 3.53448 0
      vertex 15.5303 6.91452 0
    endloop
  endfacet
  facet normal 0 0 -1
    outer loop
      vertex 16.6285 3.53448 0
      vertex 21.7085 4.14111 0
      vertex 21.9257 2.76985 0
    endloop
  endfacet
  facet normal 0 0 -1
    outer loop
      vertex 17 0 0
      vertex 16.6285 3.53448 0
      vertex 21.9257 2.76985 0
    endloop
  endfacet
  facet normal 0 -0 -1
    outer loop
      vertex 21.0183 6.82927 0
      vertex 21.4057 5.49603 0
      vertex 16.6285 3.53448 0
    endloop
  endfacet
  facet normal -0 0 -1
    outer loop
      vertex 17.0283 14.0871 0
      vertex 13.7533 9.99234 0
      vertex 16.1102 15.1285 0
    endloop
  endfacet
  facet normal 0 0 -1
    outer loop
      vertex 13.7533 9.99234 0
      vertex 19.3664 10.6467 0
      vertex 15.5303 6.91452 0
    endloop
  endfacet
  facet normal 0 -0 -1
    outer loop
      vertex 19.3664 10.6467 0
      vertex 19.9967 9.40971 0
      vertex 15.5303 6.91452 0
    endloop
  endfacet
  facet normal 0 0 -1
    outer loop
      vertex 15.5303 6.91452 0
      vertex 19.9967 9.40971 0
      vertex 20.548 8.13554 0
    endloop
  endfacet
  facet normal 0 0 -1
    outer loop
      vertex 13.7533 9.99234 0
      vertex 18.6596 11.8418 0
      vertex 19.3664 10.6467 0
    endloop
  endfacet
  facet normal 0 -0 -1
    outer loop
      vertex 16.6285 -3.53448 0
      vertex 21.0183 -6.82927 0
      vertex 15.5303 -6.91452 0
    endloop
  endfacet
  facet normal 0 0 -1
    outer loop
      vertex 13.7533 9.99234 0
      vertex 17.0283 14.0871 0
      vertex 17.8793 12.9901 0
    endloop
  endfacet
  facet normal 0 0 -1
    outer loop
      vertex 11.3752 12.6335 0
      vertex 15.1285 16.1102 0
      vertex 16.1102 15.1285 0
    endloop
  endfacet
  facet normal 0 -0 -1
    outer loop
      vertex 12.9901 17.8793 0
      vertex 14.0871 17.0283 0
      vertex 11.3752 12.6335 0
    endloop
  endfacet
  facet normal 0 0 -1
    outer loop
      vertex 13.7533 9.99234 0
      vertex 11.3752 12.6335 0
      vertex 16.1102 15.1285 0
    endloop
  endfacet
  facet normal 0 -0 -1
    outer loop
      vertex 8.13554 20.548 0
      vertex 9.40971 19.9967 0
      vertex 5.25328 16.168 0
    endloop
  endfacet
  facet normal 0 0 -1
    outer loop
      vertex 8.5 14.7224 0
      vertex 12.9901 17.8793 0
      vertex 11.3752 12.6335 0
    endloop
  endfacet
  facet normal 0 0 -1
    outer loop
      vertex 5.25328 16.168 0
      vertex 9.40971 19.9967 0
      vertex 8.5 14.7224 0
    endloop
  endfacet
  facet normal 0 0 -1
    outer loop
      vertex 8.5 14.7224 0
      vertex 9.40971 19.9967 0
      vertex 10.6467 19.3664 0
    endloop
  endfacet
  facet normal 0 0 -1
    outer loop
      vertex -5.25328 16.168 0
      vertex -8.13554 20.548 0
      vertex -6.82927 21.0183 0
    endloop
  endfacet
  facet normal 0 0 -1
    outer loop
      vertex 5.25328 16.168 0
      vertex 4.14111 21.7085 0
      vertex 5.49603 21.4057 0
    endloop
  endfacet
  facet normal 0 -0 -1
    outer loop
      vertex 0 22.1 0
      vertex 1.77698 16.9069 0
      vertex -1.77698 16.9069 0
    endloop
  endfacet
  facet normal 0 0 -1
    outer loop
      vertex 1.77698 16.9069 0
      vertex 4.14111 21.7085 0
      vertex 5.25328 16.168 0
    endloop
  endfacet
  facet normal 0 0 -1
    outer loop
      vertex 1.77698 16.9069 0
      vertex 0 22.1 0
      vertex 1.38766 22.0564 0
    endloop
  endfacet
  facet normal 0 0 -1
    outer loop
      vertex -5.49603 21.4057 0
      vertex -4.14111 21.7085 0
      vertex -5.25328 16.168 0
    endloop
  endfacet
  facet normal 0 0 -1
    outer loop
      vertex -1.77698 16.9069 0
      vertex -4.14111 21.7085 0
      vertex -2.76985 21.9257 0
    endloop
  endfacet
  facet normal 0 0 -1
    outer loop
      vertex -5.25328 16.168 0
      vertex -4.14111 21.7085 0
      vertex -1.77698 16.9069 0
    endloop
  endfacet
  facet normal 0 0 -1
    outer loop
      vertex 5.25328 16.168 0
      vertex 6.82927 21.0183 0
      vertex 8.13554 20.548 0
    endloop
  endfacet
  facet normal 0 0 -1
    outer loop
      vertex -8.5 14.7224 0
      vertex -10.6467 19.3664 0
      vertex -9.40971 19.9967 0
    endloop
  endfacet
  facet normal 0 0 -1
    outer loop
      vertex -8.5 14.7224 0
      vertex -9.40971 19.9967 0
      vertex -5.25328 16.168 0
    endloop
  endfacet
  facet normal 0 0 -1
    outer loop
      vertex -5.25328 16.168 0
      vertex -9.40971 19.9967 0
      vertex -8.13554 20.548 0
    endloop
  endfacet
  facet normal 0 0 -1
    outer loop
      vertex -12.9901 17.8793 0
      vertex -11.8418 18.6596 0
      vertex -8.5 14.7224 0
    endloop
  endfacet
  facet normal 0 0 -1
    outer loop
      vertex -13.7533 -9.99234 0
      vertex -16.1102 -15.1285 0
      vertex -17.0283 -14.0871 0
    endloop
  endfacet
  facet normal -0 0 -1
    outer loop
      vertex -8.5 14.7224 0
      vertex -11.3752 12.6335 0
      vertex -12.9901 17.8793 0
    endloop
  endfacet
  facet normal 0 -0 -1
    outer loop
      vertex -18.6596 11.8418 0
      vertex -13.7533 9.99234 0
      vertex -19.3664 10.6467 0
    endloop
  endfacet
  facet normal 0 0 -1
    outer loop
      vertex -13.7533 9.99234 0
      vertex -17.0283 14.0871 0
      vertex -16.1102 15.1285 0
    endloop
  endfacet
  facet normal -0 0 -1
    outer loop
      vertex -11.3752 12.6335 0
      vertex -13.7533 9.99234 0
      vertex -16.1102 15.1285 0
    endloop
  endfacet
  facet normal 0 0 -1
    outer loop
      vertex -11.3752 12.6335 0
      vertex -16.1102 15.1285 0
      vertex -15.1285 16.1102 0
    endloop
  endfacet
  facet normal 0 0 -1
    outer loop
      vertex -13.7533 9.99234 0
      vertex -17.8793 12.9901 0
      vertex -17.0283 14.0871 0
    endloop
  endfacet
  facet normal 0 0 -1
    outer loop
      vertex -21.0183 6.82927 0
      vertex -20.548 8.13554 0
      vertex -15.5303 6.91452 0
    endloop
  endfacet
  facet normal 0 0 -1
    outer loop
      vertex -15.5303 6.91452 0
      vertex -19.9967 9.40971 0
      vertex -19.3664 10.6467 0
    endloop
  endfacet
  facet normal -0 0 -1
    outer loop
      vertex -13.7533 9.99234 0
      vertex -15.5303 6.91452 0
      vertex -19.3664 10.6467 0
    endloop
  endfacet
  facet normal 0 0 -1
    outer loop
      vertex -22.0564 -1.38766 0
      vertex -17 0 0
      vertex -21.9257 -2.76985 0
    endloop
  endfacet
  facet normal 0 0 -1
    outer loop
      vertex -21.9257 2.76985 0
      vertex -16.6285 3.53448 0
      vertex -17 0 0
    endloop
  endfacet
  facet normal 0 0 -1
    outer loop
      vertex -16.6285 3.53448 0
      vertex -21.7085 4.14111 0
      vertex -21.4057 5.49603 0
    endloop
  endfacet
  facet normal 0 0 -1
    outer loop
      vertex -21.9257 2.76985 0
      vertex -21.7085 4.14111 0
      vertex -16.6285 3.53448 0
    endloop
  endfacet
  facet normal 0 0 -1
    outer loop
      vertex -17 0 0
      vertex -22.1 0 0
      vertex -22.0564 1.38766 0
    endloop
  endfacet
  facet normal 0 -0 -1
    outer loop
      vertex -21.9257 2.76985 0
      vertex -17 0 0
      vertex -22.0564 1.38766 0
    endloop
  endfacet
  facet normal 0 0 -1
    outer loop
      vertex -21.0183 -6.82927 0
      vertex -16.6285 -3.53448 0
      vertex -15.5303 -6.91452 0
    endloop
  endfacet
  facet normal -0 0 -1
    outer loop
      vertex -16.6285 -3.53448 0
      vertex -21.7085 -4.14111 0
      vertex -21.9257 -2.76985 0
    endloop
  endfacet
  facet normal 0 -0 -1
    outer loop
      vertex -17 0 0
      vertex -16.6285 -3.53448 0
      vertex -21.9257 -2.76985 0
    endloop
  endfacet
  facet normal 0 0 -1
    outer loop
      vertex -21.0183 -6.82927 0
      vertex -21.4057 -5.49603 0
      vertex -16.6285 -3.53448 0
    endloop
  endfacet
  facet normal 0 0 -1
    outer loop
      vertex -21.0183 6.82927 0
      vertex -15.5303 6.91452 0
      vertex -16.6285 3.53448 0
    endloop
  endfacet
  facet normal -0 0 -1
    outer loop
      vertex -13.7533 -9.99234 0
      vertex -19.3664 -10.6467 0
      vertex -15.5303 -6.91452 0
    endloop
  endfacet
  facet normal 0 0 -1
    outer loop
      vertex -19.3664 -10.6467 0
      vertex -19.9967 -9.40971 0
      vertex -15.5303 -6.91452 0
    endloop
  endfacet
  facet normal 0 0 -1
    outer loop
      vertex -15.5303 -6.91452 0
      vertex -19.9967 -9.40971 0
      vertex -20.548 -8.13554 0
    endloop
  endfacet
  facet normal 0 0 -1
    outer loop
      vertex -13.7533 -9.99234 0
      vertex -18.6596 -11.8418 0
      vertex -19.3664 -10.6467 0
    endloop
  endfacet
  facet normal 0 0 -1
    outer loop
      vertex -11.3752 12.6335 0
      vertex -14.0871 17.0283 0
      vertex -12.9901 17.8793 0
    endloop
  endfacet
  facet normal 0 0 -1
    outer loop
      vertex -13.7533 -9.99234 0
      vertex -17.0283 -14.0871 0
      vertex -17.8793 -12.9901 0
    endloop
  endfacet
  facet normal -0 0 -1
    outer loop
      vertex -8.5 -14.7224 0
      vertex -12.9901 -17.8793 0
      vertex -11.3752 -12.6335 0
    endloop
  endfacet
  facet normal 0 0 -1
    outer loop
      vertex -12.9901 -17.8793 0
      vertex -14.0871 -17.0283 0
      vertex -11.3752 -12.6335 0
    endloop
  endfacet
  facet normal 0 0 -1
    outer loop
      vertex -11.3752 -12.6335 0
      vertex -14.0871 -17.0283 0
      vertex -15.1285 -16.1102 0
    endloop
  endfacet
  facet normal 0 -0 -1
    outer loop
      vertex -13.7533 -9.99234 0
      vertex -11.3752 -12.6335 0
      vertex -16.1102 -15.1285 0
    endloop
  endfacet
  facet normal 0 0 -1
    outer loop
      vertex -8.5 -14.7224 0
      vertex -11.8418 -18.6596 0
      vertex -12.9901 -17.8793 0
    endloop
  endfacet
  facet normal 0 0 -1
    outer loop
      vertex -5.25328 -16.168 0
      vertex -8.13554 -20.548 0
      vertex -9.40971 -19.9967 0
    endloop
  endfacet
  facet normal -0 0 -1
    outer loop
      vertex -5.25328 -16.168 0
      vertex -9.40971 -19.9967 0
      vertex -8.5 -14.7224 0
    endloop
  endfacet
  facet normal 0 0 -1
    outer loop
      vertex -8.5 -14.7224 0
      vertex -9.40971 -19.9967 0
      vertex -10.6467 -19.3664 0
    endloop
  endfacet
  facet normal 0 0 -1
    outer loop
      vertex 2.76985 -21.9257 0
      vertex 1.77698 -16.9069 0
      vertex 4.14111 -21.7085 0
    endloop
  endfacet
  facet normal 0 -0 -1
    outer loop
      vertex -5.25328 -16.168 0
      vertex -4.14111 -21.7085 0
      vertex -5.49603 -21.4057 0
    endloop
  endfacet
  facet normal 0 0 -1
    outer loop
      vertex -6.82927 -21.0183 0
      vertex -5.25328 -16.168 0
      vertex -5.49603 -21.4057 0
    endloop
  endfacet
  facet normal 0 0 -1
    outer loop
      vertex -5.25328 -16.168 0
      vertex -1.77698 -16.9069 0
      vertex -4.14111 -21.7085 0
    endloop
  endfacet
  facet normal 0 0 -1
    outer loop
      vertex -2.76985 -21.9257 0
      vertex -1.77698 -16.9069 0
      vertex -1.38766 -22.0564 0
    endloop
  endfacet
  facet normal 0 0 -1
    outer loop
      vertex -2.76985 -21.9257 0
      vertex -4.14111 -21.7085 0
      vertex -1.77698 -16.9069 0
    endloop
  endfacet
  facet normal 0 0 -1
    outer loop
      vertex -1.38766 -22.0564 0
      vertex -1.77698 -16.9069 0
      vertex 0 -22.1 0
    endloop
  endfacet
  facet normal -0 0 -1
    outer loop
      vertex 1.38766 -22.0564 0
      vertex 0 -22.1 0
      vertex 1.77698 -16.9069 0
    endloop
  endfacet
  facet normal -0 0 -1
    outer loop
      vertex 1.77698 -16.9069 0
      vertex 0 -22.1 0
      vertex -1.77698 -16.9069 0
    endloop
  endfacet
  facet normal 0 0 -1
    outer loop
      vertex -6.82927 -21.0183 0
      vertex -8.13554 -20.548 0
      vertex -5.25328 -16.168 0
    endloop
  endfacet
  facet normal 0 0 -1
    outer loop
      vertex 12.9901 -17.8793 0
      vertex 8.5 -14.7224 0
      vertex 11.3752 -12.6335 0
    endloop
  endfacet
  facet normal 0 0 -1
    outer loop
      vertex -10.6467 -19.3664 0
      vertex -11.8418 -18.6596 0
      vertex -8.5 -14.7224 0
    endloop
  endfacet
  facet normal 0 0 -1
    outer loop
      vertex 13.7533 -9.99234 0
      vertex 18.6596 -11.8418 0
      vertex 17.8793 -12.9901 0
    endloop
  endfacet
  facet normal 0 0 -1
    outer loop
      vertex -16.1102 -15.1285 0
      vertex -11.3752 -12.6335 0
      vertex -15.1285 -16.1102 0
    endloop
  endfacet
  facet normal 0 0 -1
    outer loop
      vertex -18.6596 -11.8418 0
      vertex -13.7533 -9.99234 0
      vertex -17.8793 -12.9901 0
    endloop
  endfacet
  facet normal 0 0 -1
    outer loop
      vertex -21.0183 -6.82927 0
      vertex -15.5303 -6.91452 0
      vertex -20.548 -8.13554 0
    endloop
  endfacet
  facet normal 0 0 -1
    outer loop
      vertex -21.4057 -5.49603 0
      vertex -21.7085 -4.14111 0
      vertex -16.6285 -3.53448 0
    endloop
  endfacet
  facet normal 0 0 -1
    outer loop
      vertex -22.0564 -1.38766 0
      vertex -22.1 0 0
      vertex -17 0 0
    endloop
  endfacet
  facet normal 0 -0 -1
    outer loop
      vertex -21.0183 6.82927 0
      vertex -16.6285 3.53448 0
      vertex -21.4057 5.49603 0
    endloop
  endfacet
  facet normal 0 0 -1
    outer loop
      vertex -20.548 8.13554 0
      vertex -19.9967 9.40971 0
      vertex -15.5303 6.91452 0
    endloop
  endfacet
  facet normal 0 0 -1
    outer loop
      vertex -18.6596 11.8418 0
      vertex -17.8793 12.9901 0
      vertex -13.7533 9.99234 0
    endloop
  endfacet
  facet normal 0 0 -1
    outer loop
      vertex -15.1285 16.1102 0
      vertex -14.0871 17.0283 0
      vertex -11.3752 12.6335 0
    endloop
  endfacet
  facet normal 0 0 -1
    outer loop
      vertex -11.8418 18.6596 0
      vertex -10.6467 19.3664 0
      vertex -8.5 14.7224 0
    endloop
  endfacet
  facet normal 0 -0 -1
    outer loop
      vertex -5.49603 21.4057 0
      vertex -5.25328 16.168 0
      vertex -6.82927 21.0183 0
    endloop
  endfacet
  facet normal 0 -0 -1
    outer loop
      vertex -1.38766 22.0564 0
      vertex 0 22.1 0
      vertex -1.77698 16.9069 0
    endloop
  endfacet
  facet normal 0 0 -1
    outer loop
      vertex -1.38766 22.0564 0
      vertex -1.77698 16.9069 0
      vertex -2.76985 21.9257 0
    endloop
  endfacet
  facet normal 0 -0 -1
    outer loop
      vertex 2.76985 21.9257 0
      vertex 4.14111 21.7085 0
      vertex 1.77698 16.9069 0
    endloop
  endfacet
  facet normal -0 0 -1
    outer loop
      vertex 2.76985 21.9257 0
      vertex 1.77698 16.9069 0
      vertex 1.38766 22.0564 0
    endloop
  endfacet
  facet normal 0 -0 -1
    outer loop
      vertex 5.49603 21.4057 0
      vertex 6.82927 21.0183 0
      vertex 5.25328 16.168 0
    endloop
  endfacet
  facet normal 0 -0 -1
    outer loop
      vertex 11.8418 18.6596 0
      vertex 12.9901 17.8793 0
      vertex 8.5 14.7224 0
    endloop
  endfacet
  facet normal -0 0 -1
    outer loop
      vertex 11.8418 18.6596 0
      vertex 8.5 14.7224 0
      vertex 10.6467 19.3664 0
    endloop
  endfacet
  facet normal 0 -0 -1
    outer loop
      vertex 14.0871 17.0283 0
      vertex 15.1285 16.1102 0
      vertex 11.3752 12.6335 0
    endloop
  endfacet
  facet normal -0 0 -1
    outer loop
      vertex 18.6596 11.8418 0
      vertex 13.7533 9.99234 0
      vertex 17.8793 12.9901 0
    endloop
  endfacet
  facet normal 0 0 -1
    outer loop
      vertex 21.0183 6.82927 0
      vertex 15.5303 6.91452 0
      vertex 20.548 8.13554 0
    endloop
  endfacet
  facet normal 0 -0 -1
    outer loop
      vertex 21.4057 5.49603 0
      vertex 21.7085 4.14111 0
      vertex 16.6285 3.53448 0
    endloop
  endfacet
  facet normal -0 0 -1
    outer loop
      vertex 22.1 0 0
      vertex 22.0564 -1.38766 0
      vertex 17 0 0
    endloop
  endfacet
  facet normal 0 0 -1
    outer loop
      vertex 22.1 0 0
      vertex 17 0 0
      vertex 22.0564 1.38766 0
    endloop
  endfacet
  facet normal 0 0 -1
    outer loop
      vertex 21.0183 -6.82927 0
      vertex 16.6285 -3.53448 0
      vertex 21.4057 -5.49603 0
    endloop
  endfacet
  facet normal -0 0 -1
    outer loop
      vertex 20.548 -8.13554 0
      vertex 19.9967 -9.40971 0
      vertex 15.5303 -6.91452 0
    endloop
  endfacet
  facet normal 0 0 -1
    outer loop
      vertex 16.1102 -15.1285 0
      vertex 13.7533 -9.99234 0
      vertex 17.0283 -14.0871 0
    endloop
  endfacet
  facet normal 0 0 -1
    outer loop
      vertex 14.0871 -17.0283 0
      vertex 11.3752 -12.6335 0
      vertex 15.1285 -16.1102 0
    endloop
  endfacet
  facet normal 0 0 -1
    outer loop
      vertex 11.8418 -18.6596 0
      vertex 8.5 -14.7224 0
      vertex 12.9901 -17.8793 0
    endloop
  endfacet
  facet normal -0 0 -1
    outer loop
      vertex 10.6467 -19.3664 0
      vertex 9.40971 -19.9967 0
      vertex 8.5 -14.7224 0
    endloop
  endfacet
  facet normal -0 0 -1
    outer loop
      vertex 8.13554 -20.548 0
      vertex 6.82927 -21.0183 0
      vertex 5.25328 -16.168 0
    endloop
  endfacet
  facet normal 0 0 -1
    outer loop
      vertex 5.25328 -16.168 0
      vertex 4.14111 -21.7085 0
      vertex 1.77698 -16.9069 0
    endloop
  endfacet
  facet normal 0 0 1
    outer loop
      vertex 1.77698 -16.9069 15
      vertex 1.38766 -22.0564 15
      vertex 2.76985 -21.9257 15
    endloop
  endfacet
  facet normal 0 0 1
    outer loop
      vertex 4.14111 -21.7085 15
      vertex 5.49603 -21.4057 15
      vertex 5.25328 -16.168 15
    endloop
  endfacet
  facet normal 0 0 1
    outer loop
      vertex 5.25328 -16.168 15
      vertex 5.49603 -21.4057 15
      vertex 6.82927 -21.0183 15
    endloop
  endfacet
  facet normal 0 0 1
    outer loop
      vertex 5.25328 -16.168 15
      vertex 8.13554 -20.548 15
      vertex 9.40971 -19.9967 15
    endloop
  endfacet
  facet normal -0 0 1
    outer loop
      vertex 5.25328 -16.168 15
      vertex 9.40971 -19.9967 15
      vertex 8.5 -14.7224 15
    endloop
  endfacet
  facet normal 0 0 1
    outer loop
      vertex 8.5 -14.7224 15
      vertex 10.6467 -19.3664 15
      vertex 11.8418 -18.6596 15
    endloop
  endfacet
  facet normal 0 -0 1
    outer loop
      vertex 17.0283 -14.0871 15
      vertex 17.8793 -12.9901 15
      vertex 13.7533 -9.99234 15
    endloop
  endfacet
  facet normal 0 -0 1
    outer loop
      vertex 15.1285 -16.1102 15
      vertex 16.1102 -15.1285 15
      vertex 11.3752 -12.6335 15
    endloop
  endfacet
  facet normal 0 0 1
    outer loop
      vertex 16.1102 -15.1285 15
      vertex 13.7533 -9.99234 15
      vertex 11.3752 -12.6335 15
    endloop
  endfacet
  facet normal 0 0 1
    outer loop
      vertex 11.3752 -12.6335 15
      vertex 12.9901 -17.8793 15
      vertex 14.0871 -17.0283 15
    endloop
  endfacet
  facet normal 0 0 1
    outer loop
      vertex 21.0183 -6.82927 15
      vertex 15.5303 -6.91452 15
      vertex 20.548 -8.13554 15
    endloop
  endfacet
  facet normal 0 0 1
    outer loop
      vertex 13.7533 -9.99234 15
      vertex 18.6596 -11.8418 15
      vertex 19.3664 -10.6467 15
    endloop
  endfacet
  facet normal 0 -0 1
    outer loop
      vertex 19.3664 -10.6467 15
      vertex 19.9967 -9.40971 15
      vertex 15.5303 -6.91452 15
    endloop
  endfacet
  facet normal 0 0 1
    outer loop
      vertex 19.3664 -10.6467 15
      vertex 15.5303 -6.91452 15
      vertex 13.7533 -9.99234 15
    endloop
  endfacet
  facet normal 0 0 1
    outer loop
      vertex 21.9257 2.76985 15
      vertex 17 0 15
      vertex 22.0564 1.38766 15
    endloop
  endfacet
  facet normal 0 0 1
    outer loop
      vertex 17 0 15
      vertex 16.6285 -3.53448 15
      vertex 21.9257 -2.76985 15
    endloop
  endfacet
  facet normal 0 -0 1
    outer loop
      vertex 21.4057 -5.49603 15
      vertex 21.7085 -4.14111 15
      vertex 16.6285 -3.53448 15
    endloop
  endfacet
  facet normal 0 0 1
    outer loop
      vertex 17 0 15
      vertex 21.9257 -2.76985 15
      vertex 22.0564 -1.38766 15
    endloop
  endfacet
  facet normal -0 0 1
    outer loop
      vertex 16.6285 -3.53448 15
      vertex 21.7085 -4.14111 15
      vertex 21.9257 -2.76985 15
    endloop
  endfacet
  facet normal 0 0 1
    outer loop
      vertex 15.5303 6.91452 15
      vertex 16.6285 3.53448 15
      vertex 21.0183 6.82927 15
    endloop
  endfacet
  facet normal 0 0 1
    outer loop
      vertex 21.9257 2.76985 15
      vertex 21.7085 4.14111 15
      vertex 16.6285 3.53448 15
    endloop
  endfacet
  facet normal 0 0 1
    outer loop
      vertex 21.9257 2.76985 15
      vertex 16.6285 3.53448 15
      vertex 17 0 15
    endloop
  endfacet
  facet normal 0 0 1
    outer loop
      vertex 16.6285 3.53448 15
      vertex 21.4057 5.49603 15
      vertex 21.0183 6.82927 15
    endloop
  endfacet
  facet normal 0 0 1
    outer loop
      vertex 16.1102 15.1285 15
      vertex 13.7533 9.99234 15
      vertex 17.0283 14.0871 15
    endloop
  endfacet
  facet normal 0 -0 1
    outer loop
      vertex 15.5303 6.91452 15
      vertex 19.3664 10.6467 15
      vertex 13.7533 9.99234 15
    endloop
  endfacet
  facet normal 0 0 1
    outer loop
      vertex 15.5303 6.91452 15
      vertex 19.9967 9.40971 15
      vertex 19.3664 10.6467 15
    endloop
  endfacet
  facet normal 0 0 1
    outer loop
      vertex 20.548 8.13554 15
      vertex 19.9967 9.40971 15
      vertex 15.5303 6.91452 15
    endloop
  endfacet
  facet normal 0 0 1
    outer loop
      vertex 19.3664 10.6467 15
      vertex 18.6596 11.8418 15
      vertex 13.7533 9.99234 15
    endloop
  endfacet
  facet normal 0 0 1
    outer loop
      vertex 15.5303 -6.91452 15
      vertex 21.0183 -6.82927 15
      vertex 16.6285 -3.53448 15
    endloop
  endfacet
  facet normal 0 0 1
    outer loop
      vertex 17.8793 12.9901 15
      vertex 17.0283 14.0871 15
      vertex 13.7533 9.99234 15
    endloop
  endfacet
  facet normal 0 0 1
    outer loop
      vertex 16.1102 15.1285 15
      vertex 15.1285 16.1102 15
      vertex 11.3752 12.6335 15
    endloop
  endfacet
  facet normal 0 0 1
    outer loop
      vertex 11.3752 12.6335 15
      vertex 14.0871 17.0283 15
      vertex 12.9901 17.8793 15
    endloop
  endfacet
  facet normal 0 0 1
    outer loop
      vertex 16.1102 15.1285 15
      vertex 11.3752 12.6335 15
      vertex 13.7533 9.99234 15
    endloop
  endfacet
  facet normal 0 0 1
    outer loop
      vertex 5.25328 16.168 15
      vertex 9.40971 19.9967 15
      vertex 8.13554 20.548 15
    endloop
  endfacet
  facet normal 0 -0 1
    outer loop
      vertex 11.3752 12.6335 15
      vertex 12.9901 17.8793 15
      vertex 8.5 14.7224 15
    endloop
  endfacet
  facet normal 0 -0 1
    outer loop
      vertex 8.5 14.7224 15
      vertex 9.40971 19.9967 15
      vertex 5.25328 16.168 15
    endloop
  endfacet
  facet normal 0 0 1
    outer loop
      vertex 10.6467 19.3664 15
      vertex 9.40971 19.9967 15
      vertex 8.5 14.7224 15
    endloop
  endfacet
  facet normal 0 0 1
    outer loop
      vertex -6.82927 21.0183 15
      vertex -8.13554 20.548 15
      vertex -5.25328 16.168 15
    endloop
  endfacet
  facet normal 0 0 1
    outer loop
      vertex 5.49603 21.4057 15
      vertex 4.14111 21.7085 15
      vertex 5.25328 16.168 15
    endloop
  endfacet
  facet normal 0 0 1
    outer loop
      vertex -1.77698 16.9069 15
      vertex 1.77698 16.9069 15
      vertex 0 22.1 15
    endloop
  endfacet
  facet normal 0 0 1
    outer loop
      vertex 5.25328 16.168 15
      vertex 4.14111 21.7085 15
      vertex 1.77698 16.9069 15
    endloop
  endfacet
  facet normal 0 0 1
    outer loop
      vertex 1.38766 22.0564 15
      vertex 0 22.1 15
      vertex 1.77698 16.9069 15
    endloop
  endfacet
  facet normal 0 -0 1
    outer loop
      vertex -5.25328 16.168 15
      vertex -4.14111 21.7085 15
      vertex -5.49603 21.4057 15
    endloop
  endfacet
  facet normal 0 0 1
    outer loop
      vertex -2.76985 21.9257 15
      vertex -4.14111 21.7085 15
      vertex -1.77698 16.9069 15
    endloop
  endfacet
  facet normal 0 0 1
    outer loop
      vertex -1.77698 16.9069 15
      vertex -4.14111 21.7085 15
      vertex -5.25328 16.168 15
    endloop
  endfacet
  facet normal 0 0 1
    outer loop
      vertex 8.13554 20.548 15
      vertex 6.82927 21.0183 15
      vertex 5.25328 16.168 15
    endloop
  endfacet
  facet normal 0 0 1
    outer loop
      vertex -9.40971 19.9967 15
      vertex -10.6467 19.3664 15
      vertex -8.5 14.7224 15
    endloop
  endfacet
  facet normal 0 0 1
    outer loop
      vertex -5.25328 16.168 15
      vertex -9.40971 19.9967 15
      vertex -8.5 14.7224 15
    endloop
  endfacet
  facet normal 0 0 1
    outer loop
      vertex -8.13554 20.548 15
      vertex -9.40971 19.9967 15
      vertex -5.25328 16.168 15
    endloop
  endfacet
  facet normal 0 0 1
    outer loop
      vertex -8.5 14.7224 15
      vertex -11.8418 18.6596 15
      vertex -12.9901 17.8793 15
    endloop
  endfacet
  facet normal -0 0 1
    outer loop
      vertex -17.0283 -14.0871 15
      vertex -16.1102 -15.1285 15
      vertex -13.7533 -9.99234 15
    endloop
  endfacet
  facet normal 0 0 1
    outer loop
      vertex -12.9901 17.8793 15
      vertex -11.3752 12.6335 15
      vertex -8.5 14.7224 15
    endloop
  endfacet
  facet normal -0 0 1
    outer loop
      vertex -19.3664 10.6467 15
      vertex -13.7533 9.99234 15
      vertex -18.6596 11.8418 15
    endloop
  endfacet
  facet normal 0 0 1
    outer loop
      vertex -16.1102 15.1285 15
      vertex -17.0283 14.0871 15
      vertex -13.7533 9.99234 15
    endloop
  endfacet
  facet normal 0 0 1
    outer loop
      vertex -16.1102 15.1285 15
      vertex -13.7533 9.99234 15
      vertex -11.3752 12.6335 15
    endloop
  endfacet
  facet normal 0 0 1
    outer loop
      vertex -15.1285 16.1102 15
      vertex -16.1102 15.1285 15
      vertex -11.3752 12.6335 15
    endloop
  endfacet
  facet normal 0 0 1
    outer loop
      vertex -17.0283 14.0871 15
      vertex -17.8793 12.9901 15
      vertex -13.7533 9.99234 15
    endloop
  endfacet
  facet normal 0 0 1
    outer loop
      vertex -15.5303 6.91452 15
      vertex -20.548 8.13554 15
      vertex -21.0183 6.82927 15
    endloop
  endfacet
  facet normal 0 0 1
    outer loop
      vertex -19.3664 10.6467 15
      vertex -19.9967 9.40971 15
      vertex -15.5303 6.91452 15
    endloop
  endfacet
  facet normal 0 0 1
    outer loop
      vertex -19.3664 10.6467 15
      vertex -15.5303 6.91452 15
      vertex -13.7533 9.99234 15
    endloop
  endfacet
  facet normal 0 -0 1
    outer loop
      vertex -21.9257 -2.76985 15
      vertex -17 0 15
      vertex -22.0564 -1.38766 15
    endloop
  endfacet
  facet normal 0 -0 1
    outer loop
      vertex -17 0 15
      vertex -16.6285 3.53448 15
      vertex -21.9257 2.76985 15
    endloop
  endfacet
  facet normal 0 0 1
    outer loop
      vertex -21.4057 5.49603 15
      vertex -21.7085 4.14111 15
      vertex -16.6285 3.53448 15
    endloop
  endfacet
  facet normal 0 0 1
    outer loop
      vertex -16.6285 3.53448 15
      vertex -21.7085 4.14111 15
      vertex -21.9257 2.76985 15
    endloop
  endfacet
  facet normal 0 0 1
    outer loop
      vertex -22.0564 1.38766 15
      vertex -22.1 0 15
      vertex -17 0 15
    endloop
  endfacet
  facet normal -0 0 1
    outer loop
      vertex -22.0564 1.38766 15
      vertex -17 0 15
      vertex -21.9257 2.76985 15
    endloop
  endfacet
  facet normal 0 0 1
    outer loop
      vertex -15.5303 -6.91452 15
      vertex -16.6285 -3.53448 15
      vertex -21.0183 -6.82927 15
    endloop
  endfacet
  facet normal 0 0 1
    outer loop
      vertex -21.9257 -2.76985 15
      vertex -21.7085 -4.14111 15
      vertex -16.6285 -3.53448 15
    endloop
  endfacet
  facet normal -0 0 1
    outer loop
      vertex -21.9257 -2.76985 15
      vertex -16.6285 -3.53448 15
      vertex -17 0 15
    endloop
  endfacet
  facet normal 0 0 1
    outer loop
      vertex -16.6285 -3.53448 15
      vertex -21.4057 -5.49603 15
      vertex -21.0183 -6.82927 15
    endloop
  endfacet
  facet normal 0 -0 1
    outer loop
      vertex -16.6285 3.53448 15
      vertex -15.5303 6.91452 15
      vertex -21.0183 6.82927 15
    endloop
  endfacet
  facet normal 0 0 1
    outer loop
      vertex -15.5303 -6.91452 15
      vertex -19.3664 -10.6467 15
      vertex -13.7533 -9.99234 15
    endloop
  endfacet
  facet normal 0 0 1
    outer loop
      vertex -15.5303 -6.91452 15
      vertex -19.9967 -9.40971 15
      vertex -19.3664 -10.6467 15
    endloop
  endfacet
  facet normal -0 0 1
    outer loop
      vertex -20.548 -8.13554 15
      vertex -19.9967 -9.40971 15
      vertex -15.5303 -6.91452 15
    endloop
  endfacet
  facet normal -0 0 1
    outer loop
      vertex -19.3664 -10.6467 15
      vertex -18.6596 -11.8418 15
      vertex -13.7533 -9.99234 15
    endloop
  endfacet
  facet normal 0 0 1
    outer loop
      vertex -12.9901 17.8793 15
      vertex -14.0871 17.0283 15
      vertex -11.3752 12.6335 15
    endloop
  endfacet
  facet normal -0 0 1
    outer loop
      vertex -17.8793 -12.9901 15
      vertex -17.0283 -14.0871 15
      vertex -13.7533 -9.99234 15
    endloop
  endfacet
  facet normal 0 0 1
    outer loop
      vertex -11.3752 -12.6335 15
      vertex -12.9901 -17.8793 15
      vertex -8.5 -14.7224 15
    endloop
  endfacet
  facet normal 0 0 1
    outer loop
      vertex -11.3752 -12.6335 15
      vertex -14.0871 -17.0283 15
      vertex -12.9901 -17.8793 15
    endloop
  endfacet
  facet normal -0 0 1
    outer loop
      vertex -15.1285 -16.1102 15
      vertex -14.0871 -17.0283 15
      vertex -11.3752 -12.6335 15
    endloop
  endfacet
  facet normal 0 0 1
    outer loop
      vertex -16.1102 -15.1285 15
      vertex -11.3752 -12.6335 15
      vertex -13.7533 -9.99234 15
    endloop
  endfacet
  facet normal -0 0 1
    outer loop
      vertex -12.9901 -17.8793 15
      vertex -11.8418 -18.6596 15
      vertex -8.5 -14.7224 15
    endloop
  endfacet
  facet normal -0 0 1
    outer loop
      vertex -9.40971 -19.9967 15
      vertex -8.13554 -20.548 15
      vertex -5.25328 -16.168 15
    endloop
  endfacet
  facet normal 0 0 1
    outer loop
      vertex -8.5 -14.7224 15
      vertex -9.40971 -19.9967 15
      vertex -5.25328 -16.168 15
    endloop
  endfacet
  facet normal -0 0 1
    outer loop
      vertex -10.6467 -19.3664 15
      vertex -9.40971 -19.9967 15
      vertex -8.5 -14.7224 15
    endloop
  endfacet
  facet normal 0 0 1
    outer loop
      vertex 4.14111 -21.7085 15
      vertex 1.77698 -16.9069 15
      vertex 2.76985 -21.9257 15
    endloop
  endfacet
  facet normal -0 0 1
    outer loop
      vertex -5.49603 -21.4057 15
      vertex -4.14111 -21.7085 15
      vertex -5.25328 -16.168 15
    endloop
  endfacet
  facet normal 0 -0 1
    outer loop
      vertex -5.49603 -21.4057 15
      vertex -5.25328 -16.168 15
      vertex -6.82927 -21.0183 15
    endloop
  endfacet
  facet normal 0 -0 1
    outer loop
      vertex -4.14111 -21.7085 15
      vertex -1.77698 -16.9069 15
      vertex -5.25328 -16.168 15
    endloop
  endfacet
  facet normal 0 0 1
    outer loop
      vertex -1.38766 -22.0564 15
      vertex -1.77698 -16.9069 15
      vertex -2.76985 -21.9257 15
    endloop
  endfacet
  facet normal 0 0 1
    outer loop
      vertex -1.77698 -16.9069 15
      vertex -4.14111 -21.7085 15
      vertex -2.76985 -21.9257 15
    endloop
  endfacet
  facet normal 0 0 1
    outer loop
      vertex 0 -22.1 15
      vertex -1.77698 -16.9069 15
      vertex -1.38766 -22.0564 15
    endloop
  endfacet
  facet normal 0 0 1
    outer loop
      vertex 1.77698 -16.9069 15
      vertex 0 -22.1 15
      vertex 1.38766 -22.0564 15
    endloop
  endfacet
  facet normal -0 0 1
    outer loop
      vertex -1.77698 -16.9069 15
      vertex 0 -22.1 15
      vertex 1.77698 -16.9069 15
    endloop
  endfacet
  facet normal 0 0 1
    outer loop
      vertex -5.25328 -16.168 15
      vertex -8.13554 -20.548 15
      vertex -6.82927 -21.0183 15
    endloop
  endfacet
  facet normal 0 0 1
    outer loop
      vertex 11.3752 -12.6335 15
      vertex 8.5 -14.7224 15
      vertex 12.9901 -17.8793 15
    endloop
  endfacet
  facet normal 0 0 1
    outer loop
      vertex -8.5 -14.7224 15
      vertex -11.8418 -18.6596 15
      vertex -10.6467 -19.3664 15
    endloop
  endfacet
  facet normal 0 -0 1
    outer loop
      vertex 17.8793 -12.9901 15
      vertex 18.6596 -11.8418 15
      vertex 13.7533 -9.99234 15
    endloop
  endfacet
  facet normal 0 -0 1
    outer loop
      vertex -15.1285 -16.1102 15
      vertex -11.3752 -12.6335 15
      vertex -16.1102 -15.1285 15
    endloop
  endfacet
  facet normal 0 -0 1
    outer loop
      vertex -17.8793 -12.9901 15
      vertex -13.7533 -9.99234 15
      vertex -18.6596 -11.8418 15
    endloop
  endfacet
  facet normal 0 -0 1
    outer loop
      vertex -20.548 -8.13554 15
      vertex -15.5303 -6.91452 15
      vertex -21.0183 -6.82927 15
    endloop
  endfacet
  facet normal 0 0 1
    outer loop
      vertex -16.6285 -3.53448 15
      vertex -21.7085 -4.14111 15
      vertex -21.4057 -5.49603 15
    endloop
  endfacet
  facet normal 0 0 1
    outer loop
      vertex -17 0 15
      vertex -22.1 0 15
      vertex -22.0564 -1.38766 15
    endloop
  endfacet
  facet normal -0 0 1
    outer loop
      vertex -21.4057 5.49603 15
      vertex -16.6285 3.53448 15
      vertex -21.0183 6.82927 15
    endloop
  endfacet
  facet normal 0 0 1
    outer loop
      vertex -15.5303 6.91452 15
      vertex -19.9967 9.40971 15
      vertex -20.548 8.13554 15
    endloop
  endfacet
  facet normal 0 0 1
    outer loop
      vertex -13.7533 9.99234 15
      vertex -17.8793 12.9901 15
      vertex -18.6596 11.8418 15
    endloop
  endfacet
  facet normal 0 0 1
    outer loop
      vertex -11.3752 12.6335 15
      vertex -14.0871 17.0283 15
      vertex -15.1285 16.1102 15
    endloop
  endfacet
  facet normal 0 0 1
    outer loop
      vertex -8.5 14.7224 15
      vertex -10.6467 19.3664 15
      vertex -11.8418 18.6596 15
    endloop
  endfacet
  facet normal -0 0 1
    outer loop
      vertex -6.82927 21.0183 15
      vertex -5.25328 16.168 15
      vertex -5.49603 21.4057 15
    endloop
  endfacet
  facet normal 0 0 1
    outer loop
      vertex -1.77698 16.9069 15
      vertex 0 22.1 15
      vertex -1.38766 22.0564 15
    endloop
  endfacet
  facet normal -0 0 1
    outer loop
      vertex -2.76985 21.9257 15
      vertex -1.77698 16.9069 15
      vertex -1.38766 22.0564 15
    endloop
  endfacet
  facet normal 0 0 1
    outer loop
      vertex 1.77698 16.9069 15
      vertex 4.14111 21.7085 15
      vertex 2.76985 21.9257 15
    endloop
  endfacet
  facet normal 0 0 1
    outer loop
      vertex 1.38766 22.0564 15
      vertex 1.77698 16.9069 15
      vertex 2.76985 21.9257 15
    endloop
  endfacet
  facet normal 0 0 1
    outer loop
      vertex 5.25328 16.168 15
      vertex 6.82927 21.0183 15
      vertex 5.49603 21.4057 15
    endloop
  endfacet
  facet normal 0 0 1
    outer loop
      vertex 8.5 14.7224 15
      vertex 12.9901 17.8793 15
      vertex 11.8418 18.6596 15
    endloop
  endfacet
  facet normal 0 0 1
    outer loop
      vertex 10.6467 19.3664 15
      vertex 8.5 14.7224 15
      vertex 11.8418 18.6596 15
    endloop
  endfacet
  facet normal 0 0 1
    outer loop
      vertex 11.3752 12.6335 15
      vertex 15.1285 16.1102 15
      vertex 14.0871 17.0283 15
    endloop
  endfacet
  facet normal 0 0 1
    outer loop
      vertex 17.8793 12.9901 15
      vertex 13.7533 9.99234 15
      vertex 18.6596 11.8418 15
    endloop
  endfacet
  facet normal 0 0 1
    outer loop
      vertex 20.548 8.13554 15
      vertex 15.5303 6.91452 15
      vertex 21.0183 6.82927 15
    endloop
  endfacet
  facet normal 0 0 1
    outer loop
      vertex 16.6285 3.53448 15
      vertex 21.7085 4.14111 15
      vertex 21.4057 5.49603 15
    endloop
  endfacet
  facet normal -0 0 1
    outer loop
      vertex 17 0 15
      vertex 22.0564 -1.38766 15
      vertex 22.1 0 15
    endloop
  endfacet
  facet normal 0 0 1
    outer loop
      vertex 22.0564 1.38766 15
      vertex 17 0 15
      vertex 22.1 0 15
    endloop
  endfacet
  facet normal 0 0 1
    outer loop
      vertex 21.4057 -5.49603 15
      vertex 16.6285 -3.53448 15
      vertex 21.0183 -6.82927 15
    endloop
  endfacet
  facet normal 0 0 1
    outer loop
      vertex 15.5303 -6.91452 15
      vertex 19.9967 -9.40971 15
      vertex 20.548 -8.13554 15
    endloop
  endfacet
  facet normal 0 0 1
    outer loop
      vertex 17.0283 -14.0871 15
      vertex 13.7533 -9.99234 15
      vertex 16.1102 -15.1285 15
    endloop
  endfacet
  facet normal 0 0 1
    outer loop
      vertex 15.1285 -16.1102 15
      vertex 11.3752 -12.6335 15
      vertex 14.0871 -17.0283 15
    endloop
  endfacet
  facet normal 0 0 1
    outer loop
      vertex 12.9901 -17.8793 15
      vertex 8.5 -14.7224 15
      vertex 11.8418 -18.6596 15
    endloop
  endfacet
  facet normal 0 0 1
    outer loop
      vertex 8.5 -14.7224 15
      vertex 9.40971 -19.9967 15
      vertex 10.6467 -19.3664 15
    endloop
  endfacet
  facet normal 0 0 1
    outer loop
      vertex 5.25328 -16.168 15
      vertex 6.82927 -21.0183 15
      vertex 8.13554 -20.548 15
    endloop
  endfacet
  facet normal -0 0 1
    outer loop
      vertex 1.77698 -16.9069 15
      vertex 4.14111 -21.7085 15
      vertex 5.25328 -16.168 15
    endloop
  endfacet
  facet normal 0.0941401 -0.995559 0
    outer loop
      vertex 2.76985 -21.9257 0
      vertex 1.38766 -22.0564 15
      vertex 1.38766 -22.0564 0
    endloop
  endfacet
  facet normal 0.0941401 -0.995559 0
    outer loop
      vertex 2.76985 -21.9257 0
      vertex 2.76985 -21.9257 15
      vertex 1.38766 -22.0564 15
    endloop
  endfacet
  facet normal 0.156444 -0.987687 0
    outer loop
      vertex 4.14111 -21.7085 0
      vertex 2.76985 -21.9257 15
      vertex 2.76985 -21.9257 0
    endloop
  endfacet
  facet normal 0.156444 -0.987687 0
    outer loop
      vertex 4.14111 -21.7085 0
      vertex 4.14111 -21.7085 15
      vertex 2.76985 -21.9257 15
    endloop
  endfacet
  facet normal 0.218102 -0.975926 0
    outer loop
      vertex 5.49603 -21.4057 0
      vertex 4.14111 -21.7085 15
      vertex 4.14111 -21.7085 0
    endloop
  endfacet
  facet normal 0.218102 -0.975926 0
    outer loop
      vertex 5.49603 -21.4057 0
      vertex 5.49603 -21.4057 15
      vertex 4.14111 -21.7085 15
    endloop
  endfacet
  facet normal 0.27903 -0.960282 0
    outer loop
      vertex 6.82927 -21.0183 0
      vertex 5.49603 -21.4057 15
      vertex 5.49603 -21.4057 0
    endloop
  endfacet
  facet normal 0.27903 -0.960282 0
    outer loop
      vertex 6.82927 -21.0183 0
      vertex 6.82927 -21.0183 15
      vertex 5.49603 -21.4057 15
    endloop
  endfacet
  facet normal 0.338747 -0.940878 0
    outer loop
      vertex 8.13554 -20.548 0
      vertex 6.82927 -21.0183 15
      vertex 6.82927 -21.0183 0
    endloop
  endfacet
  facet normal 0.338747 -0.940878 0
    outer loop
      vertex 8.13554 -20.548 0
      vertex 8.13554 -20.548 15
      vertex 6.82927 -21.0183 15
    endloop
  endfacet
  facet normal 0.397098 -0.917776 0
    outer loop
      vertex 9.40971 -19.9967 0
      vertex 8.13554 -20.548 15
      vertex 8.13554 -20.548 0
    endloop
  endfacet
  facet normal 0.397098 -0.917776 0
    outer loop
      vertex 9.40971 -19.9967 0
      vertex 9.40971 -19.9967 15
      vertex 8.13554 -20.548 15
    endloop
  endfacet
  facet normal 0.454003 -0.891 0
    outer loop
      vertex 10.6467 -19.3664 0
      vertex 9.40971 -19.9967 15
      vertex 9.40971 -19.9967 0
    endloop
  endfacet
  facet normal 0.454003 -0.891 0
    outer loop
      vertex 10.6467 -19.3664 0
      vertex 10.6467 -19.3664 15
      vertex 9.40971 -19.9967 15
    endloop
  endfacet
  facet normal 0.509052 -0.860736 0
    outer loop
      vertex 11.8418 -18.6596 0
      vertex 10.6467 -19.3664 15
      vertex 10.6467 -19.3664 0
    endloop
  endfacet
  facet normal 0.509052 -0.860736 0
    outer loop
      vertex 11.8418 -18.6596 0
      vertex 11.8418 -18.6596 15
      vertex 10.6467 -19.3664 15
    endloop
  endfacet
  facet normal 0.562042 -0.827109 0
    outer loop
      vertex 12.9901 -17.8793 0
      vertex 11.8418 -18.6596 15
      vertex 11.8418 -18.6596 0
    endloop
  endfacet
  facet normal 0.562042 -0.827109 0
    outer loop
      vertex 12.9901 -17.8793 0
      vertex 12.9901 -17.8793 15
      vertex 11.8418 -18.6596 15
    endloop
  endfacet
  facet normal 0.612943 -0.790127 0
    outer loop
      vertex 14.0871 -17.0283 0
      vertex 12.9901 -17.8793 15
      vertex 12.9901 -17.8793 0
    endloop
  endfacet
  facet normal 0.612943 -0.790127 0
    outer loop
      vertex 14.0871 -17.0283 0
      vertex 14.0871 -17.0283 15
      vertex 12.9901 -17.8793 15
    endloop
  endfacet
  facet normal 0.661305 -0.750117 0
    outer loop
      vertex 15.1285 -16.1102 0
      vertex 14.0871 -17.0283 15
      vertex 14.0871 -17.0283 0
    endloop
  endfacet
  facet normal 0.661305 -0.750117 0
    outer loop
      vertex 15.1285 -16.1102 0
      vertex 15.1285 -16.1102 15
      vertex 14.0871 -17.0283 15
    endloop
  endfacet
  facet normal 0.707107 -0.707107 0
    outer loop
      vertex 16.1102 -15.1285 0
      vertex 15.1285 -16.1102 15
      vertex 15.1285 -16.1102 0
    endloop
  endfacet
  facet normal 0.707107 -0.707107 0
    outer loop
      vertex 16.1102 -15.1285 0
      vertex 16.1102 -15.1285 15
      vertex 15.1285 -16.1102 15
    endloop
  endfacet
  facet normal 0.750117 -0.661305 0
    outer loop
      vertex 17.0283 -14.0871 0
      vertex 16.1102 -15.1285 15
      vertex 16.1102 -15.1285 0
    endloop
  endfacet
  facet normal 0.750117 -0.661305 0
    outer loop
      vertex 17.0283 -14.0871 0
      vertex 17.0283 -14.0871 15
      vertex 16.1102 -15.1285 15
    endloop
  endfacet
  facet normal 0.790127 -0.612943 0
    outer loop
      vertex 17.8793 -12.9901 0
      vertex 17.0283 -14.0871 15
      vertex 17.0283 -14.0871 0
    endloop
  endfacet
  facet normal 0.790127 -0.612943 0
    outer loop
      vertex 17.8793 -12.9901 0
      vertex 17.8793 -12.9901 15
      vertex 17.0283 -14.0871 15
    endloop
  endfacet
  facet normal 0.827109 -0.562042 0
    outer loop
      vertex 18.6596 -11.8418 0
      vertex 17.8793 -12.9901 15
      vertex 17.8793 -12.9901 0
    endloop
  endfacet
  facet normal 0.827109 -0.562042 0
    outer loop
      vertex 18.6596 -11.8418 0
      vertex 18.6596 -11.8418 15
      vertex 17.8793 -12.9901 15
    endloop
  endfacet
  facet normal 0.860736 -0.509052 0
    outer loop
      vertex 19.3664 -10.6467 0
      vertex 18.6596 -11.8418 15
      vertex 18.6596 -11.8418 0
    endloop
  endfacet
  facet normal 0.860736 -0.509052 0
    outer loop
      vertex 19.3664 -10.6467 0
      vertex 19.3664 -10.6467 15
      vertex 18.6596 -11.8418 15
    endloop
  endfacet
  facet normal 0.891 -0.454003 0
    outer loop
      vertex 19.9967 -9.40971 0
      vertex 19.3664 -10.6467 15
      vertex 19.3664 -10.6467 0
    endloop
  endfacet
  facet normal 0.891 -0.454003 0
    outer loop
      vertex 19.9967 -9.40971 0
      vertex 19.9967 -9.40971 15
      vertex 19.3664 -10.6467 15
    endloop
  endfacet
  facet normal 0.917776 -0.397098 0
    outer loop
      vertex 20.548 -8.13554 0
      vertex 19.9967 -9.40971 15
      vertex 19.9967 -9.40971 0
    endloop
  endfacet
  facet normal 0.917776 -0.397098 0
    outer loop
      vertex 20.548 -8.13554 0
      vertex 20.548 -8.13554 15
      vertex 19.9967 -9.40971 15
    endloop
  endfacet
  facet normal 0.940878 -0.338747 0
    outer loop
      vertex 21.0183 -6.82927 0
      vertex 20.548 -8.13554 15
      vertex 20.548 -8.13554 0
    endloop
  endfacet
  facet normal 0.940878 -0.338747 0
    outer loop
      vertex 21.0183 -6.82927 0
      vertex 21.0183 -6.82927 15
      vertex 20.548 -8.13554 15
    endloop
  endfacet
  facet normal 0.960282 -0.27903 0
    outer loop
      vertex 21.4057 -5.49603 0
      vertex 21.0183 -6.82927 15
      vertex 21.0183 -6.82927 0
    endloop
  endfacet
  facet normal 0.960282 -0.27903 0
    outer loop
      vertex 21.4057 -5.49603 0
      vertex 21.4057 -5.49603 15
      vertex 21.0183 -6.82927 15
    endloop
  endfacet
  facet normal 0.975926 -0.218102 0
    outer loop
      vertex 21.7085 -4.14111 0
      vertex 21.4057 -5.49603 15
      vertex 21.4057 -5.49603 0
    endloop
  endfacet
  facet normal 0.975926 -0.218102 0
    outer loop
      vertex 21.7085 -4.14111 0
      vertex 21.7085 -4.14111 15
      vertex 21.4057 -5.49603 15
    endloop
  endfacet
  facet normal 0.987687 -0.156444 0
    outer loop
      vertex 21.9257 -2.76985 0
      vertex 21.7085 -4.14111 15
      vertex 21.7085 -4.14111 0
    endloop
  endfacet
  facet normal 0.987687 -0.156444 0
    outer loop
      vertex 21.9257 -2.76985 0
      vertex 21.9257 -2.76985 15
      vertex 21.7085 -4.14111 15
    endloop
  endfacet
  facet normal 0.995559 -0.0941401 0
    outer loop
      vertex 22.0564 -1.38766 0
      vertex 21.9257 -2.76985 15
      vertex 21.9257 -2.76985 0
    endloop
  endfacet
  facet normal 0.995559 -0.0941401 0
    outer loop
      vertex 22.0564 -1.38766 0
      vertex 22.0564 -1.38766 15
      vertex 21.9257 -2.76985 15
    endloop
  endfacet
  facet normal 0.999507 -0.0314043 0
    outer loop
      vertex 22.1 0 0
      vertex 22.0564 -1.38766 15
      vertex 22.0564 -1.38766 0
    endloop
  endfacet
  facet normal 0.999507 -0.0314043 0
    outer loop
      vertex 22.1 0 0
      vertex 22.1 0 15
      vertex 22.0564 -1.38766 15
    endloop
  endfacet
  facet normal 0.999507 0.0314043 0
    outer loop
      vertex 22.0564 1.38766 0
      vertex 22.1 0 15
      vertex 22.1 0 0
    endloop
  endfacet
  facet normal 0.999507 0.0314043 -0
    outer loop
      vertex 22.0564 1.38766 0
      vertex 22.0564 1.38766 15
      vertex 22.1 0 15
    endloop
  endfacet
  facet normal 0.995559 0.0941401 0
    outer loop
      vertex 21.9257 2.76985 0
      vertex 22.0564 1.38766 15
      vertex 22.0564 1.38766 0
    endloop
  endfacet
  facet normal 0.995559 0.0941401 -0
    outer loop
      vertex 21.9257 2.76985 0
      vertex 21.9257 2.76985 15
      vertex 22.0564 1.38766 15
    endloop
  endfacet
  facet normal 0.987687 0.156444 0
    outer loop
      vertex 21.7085 4.14111 0
      vertex 21.9257 2.76985 15
      vertex 21.9257 2.76985 0
    endloop
  endfacet
  facet normal 0.987687 0.156444 -0
    outer loop
      vertex 21.7085 4.14111 0
      vertex 21.7085 4.14111 15
      vertex 21.9257 2.76985 15
    endloop
  endfacet
  facet normal 0.975926 0.218102 0
    outer loop
      vertex 21.4057 5.49603 0
      vertex 21.7085 4.14111 15
      vertex 21.7085 4.14111 0
    endloop
  endfacet
  facet normal 0.975926 0.218102 -0
    outer loop
      vertex 21.4057 5.49603 0
      vertex 21.4057 5.49603 15
      vertex 21.7085 4.14111 15
    endloop
  endfacet
  facet normal 0.960282 0.27903 0
    outer loop
      vertex 21.0183 6.82927 0
      vertex 21.4057 5.49603 15
      vertex 21.4057 5.49603 0
    endloop
  endfacet
  facet normal 0.960282 0.27903 -0
    outer loop
      vertex 21.0183 6.82927 0
      vertex 21.0183 6.82927 15
      vertex 21.4057 5.49603 15
    endloop
  endfacet
  facet normal 0.940878 0.338747 0
    outer loop
      vertex 20.548 8.13554 0
      vertex 21.0183 6.82927 15
      vertex 21.0183 6.82927 0
    endloop
  endfacet
  facet normal 0.940878 0.338747 -0
    outer loop
      vertex 20.548 8.13554 0
      vertex 20.548 8.13554 15
      vertex 21.0183 6.82927 15
    endloop
  endfacet
  facet normal 0.917776 0.397098 0
    outer loop
      vertex 19.9967 9.40971 0
      vertex 20.548 8.13554 15
      vertex 20.548 8.13554 0
    endloop
  endfacet
  facet normal 0.917776 0.397098 -0
    outer loop
      vertex 19.9967 9.40971 0
      vertex 19.9967 9.40971 15
      vertex 20.548 8.13554 15
    endloop
  endfacet
  facet normal 0.891 0.454003 0
    outer loop
      vertex 19.3664 10.6467 0
      vertex 19.9967 9.40971 15
      vertex 19.9967 9.40971 0
    endloop
  endfacet
  facet normal 0.891 0.454003 -0
    outer loop
      vertex 19.3664 10.6467 0
      vertex 19.3664 10.6467 15
      vertex 19.9967 9.40971 15
    endloop
  endfacet
  facet normal 0.860736 0.509052 0
    outer loop
      vertex 18.6596 11.8418 0
      vertex 19.3664 10.6467 15
      vertex 19.3664 10.6467 0
    endloop
  endfacet
  facet normal 0.860736 0.509052 -0
    outer loop
      vertex 18.6596 11.8418 0
      vertex 18.6596 11.8418 15
      vertex 19.3664 10.6467 15
    endloop
  endfacet
  facet normal 0.827109 0.562042 0
    outer loop
      vertex 17.8793 12.9901 0
      vertex 18.6596 11.8418 15
      vertex 18.6596 11.8418 0
    endloop
  endfacet
  facet normal 0.827109 0.562042 -0
    outer loop
      vertex 17.8793 12.9901 0
      vertex 17.8793 12.9901 15
      vertex 18.6596 11.8418 15
    endloop
  endfacet
  facet normal 0.790127 0.612943 0
    outer loop
      vertex 17.0283 14.0871 0
      vertex 17.8793 12.9901 15
      vertex 17.8793 12.9901 0
    endloop
  endfacet
  facet normal 0.790127 0.612943 -0
    outer loop
      vertex 17.0283 14.0871 0
      vertex 17.0283 14.0871 15
      vertex 17.8793 12.9901 15
    endloop
  endfacet
  facet normal 0.750117 0.661305 0
    outer loop
      vertex 16.1102 15.1285 0
      vertex 17.0283 14.0871 15
      vertex 17.0283 14.0871 0
    endloop
  endfacet
  facet normal 0.750117 0.661305 -0
    outer loop
      vertex 16.1102 15.1285 0
      vertex 16.1102 15.1285 15
      vertex 17.0283 14.0871 15
    endloop
  endfacet
  facet normal 0.707107 0.707107 0
    outer loop
      vertex 15.1285 16.1102 0
      vertex 16.1102 15.1285 15
      vertex 16.1102 15.1285 0
    endloop
  endfacet
  facet normal 0.707107 0.707107 -0
    outer loop
      vertex 15.1285 16.1102 0
      vertex 15.1285 16.1102 15
      vertex 16.1102 15.1285 15
    endloop
  endfacet
  facet normal 0.661305 0.750117 0
    outer loop
      vertex 14.0871 17.0283 0
      vertex 15.1285 16.1102 15
      vertex 15.1285 16.1102 0
    endloop
  endfacet
  facet normal 0.661305 0.750117 -0
    outer loop
      vertex 14.0871 17.0283 0
      vertex 14.0871 17.0283 15
      vertex 15.1285 16.1102 15
    endloop
  endfacet
  facet normal 0.612943 0.790127 0
    outer loop
      vertex 12.9901 17.8793 0
      vertex 14.0871 17.0283 15
      vertex 14.0871 17.0283 0
    endloop
  endfacet
  facet normal 0.612943 0.790127 -0
    outer loop
      vertex 12.9901 17.8793 0
      vertex 12.9901 17.8793 15
      vertex 14.0871 17.0283 15
    endloop
  endfacet
  facet normal 0.562042 0.827109 0
    outer loop
      vertex 11.8418 18.6596 0
      vertex 12.9901 17.8793 15
      vertex 12.9901 17.8793 0
    endloop
  endfacet
  facet normal 0.562042 0.827109 -0
    outer loop
      vertex 11.8418 18.6596 0
      vertex 11.8418 18.6596 15
      vertex 12.9901 17.8793 15
    endloop
  endfacet
  facet normal 0.509052 0.860736 0
    outer loop
      vertex 10.6467 19.3664 0
      vertex 11.8418 18.6596 15
      vertex 11.8418 18.6596 0
    endloop
  endfacet
  facet normal 0.509052 0.860736 -0
    outer loop
      vertex 10.6467 19.3664 0
      vertex 10.6467 19.3664 15
      vertex 11.8418 18.6596 15
    endloop
  endfacet
  facet normal 0.454003 0.891 0
    outer loop
      vertex 9.40971 19.9967 0
      vertex 10.6467 19.3664 15
      vertex 10.6467 19.3664 0
    endloop
  endfacet
  facet normal 0.454003 0.891 -0
    outer loop
      vertex 9.40971 19.9967 0
      vertex 9.40971 19.9967 15
      vertex 10.6467 19.3664 15
    endloop
  endfacet
  facet normal 0.397098 0.917776 0
    outer loop
      vertex 8.13554 20.548 0
      vertex 9.40971 19.9967 15
      vertex 9.40971 19.9967 0
    endloop
  endfacet
  facet normal 0.397098 0.917776 -0
    outer loop
      vertex 8.13554 20.548 0
      vertex 8.13554 20.548 15
      vertex 9.40971 19.9967 15
    endloop
  endfacet
  facet normal 0.338747 0.940878 0
    outer loop
      vertex 6.82927 21.0183 0
      vertex 8.13554 20.548 15
      vertex 8.13554 20.548 0
    endloop
  endfacet
  facet normal 0.338747 0.940878 -0
    outer loop
      vertex 6.82927 21.0183 0
      vertex 6.82927 21.0183 15
      vertex 8.13554 20.548 15
    endloop
  endfacet
  facet normal 0.27903 0.960282 0
    outer loop
      vertex 5.49603 21.4057 0
      vertex 6.82927 21.0183 15
      vertex 6.82927 21.0183 0
    endloop
  endfacet
  facet normal 0.27903 0.960282 -0
    outer loop
      vertex 5.49603 21.4057 0
      vertex 5.49603 21.4057 15
      vertex 6.82927 21.0183 15
    endloop
  endfacet
  facet normal 0.218102 0.975926 0
    outer loop
      vertex 4.14111 21.7085 0
      vertex 5.49603 21.4057 15
      vertex 5.49603 21.4057 0
    endloop
  endfacet
  facet normal 0.218102 0.975926 -0
    outer loop
      vertex 4.14111 21.7085 0
      vertex 4.14111 21.7085 15
      vertex 5.49603 21.4057 15
    endloop
  endfacet
  facet normal 0.156444 0.987687 0
    outer loop
      vertex 2.76985 21.9257 0
      vertex 4.14111 21.7085 15
      vertex 4.14111 21.7085 0
    endloop
  endfacet
  facet normal 0.156444 0.987687 -0
    outer loop
      vertex 2.76985 21.9257 0
      vertex 2.76985 21.9257 15
      vertex 4.14111 21.7085 15
    endloop
  endfacet
  facet normal 0.0941401 0.995559 0
    outer loop
      vertex 1.38766 22.0564 0
      vertex 2.76985 21.9257 15
      vertex 2.76985 21.9257 0
    endloop
  endfacet
  facet normal 0.0941401 0.995559 -0
    outer loop
      vertex 1.38766 22.0564 0
      vertex 1.38766 22.0564 15
      vertex 2.76985 21.9257 15
    endloop
  endfacet
  facet normal 0.0314043 0.999507 0
    outer loop
      vertex 0 22.1 0
      vertex 1.38766 22.0564 15
      vertex 1.38766 22.0564 0
    endloop
  endfacet
  facet normal 0.0314043 0.999507 -0
    outer loop
      vertex 0 22.1 0
      vertex 0 22.1 15
      vertex 1.38766 22.0564 15
    endloop
  endfacet
  facet normal -0.0314043 0.999507 0
    outer loop
      vertex -1.38766 22.0564 0
      vertex 0 22.1 15
      vertex 0 22.1 0
    endloop
  endfacet
  facet normal -0.0314043 0.999507 0
    outer loop
      vertex -1.38766 22.0564 0
      vertex -1.38766 22.0564 15
      vertex 0 22.1 15
    endloop
  endfacet
  facet normal -0.0941401 0.995559 0
    outer loop
      vertex -2.76985 21.9257 0
      vertex -1.38766 22.0564 15
      vertex -1.38766 22.0564 0
    endloop
  endfacet
  facet normal -0.0941401 0.995559 0
    outer loop
      vertex -2.76985 21.9257 0
      vertex -2.76985 21.9257 15
      vertex -1.38766 22.0564 15
    endloop
  endfacet
  facet normal -0.156444 0.987687 0
    outer loop
      vertex -4.14111 21.7085 0
      vertex -2.76985 21.9257 15
      vertex -2.76985 21.9257 0
    endloop
  endfacet
  facet normal -0.156444 0.987687 0
    outer loop
      vertex -4.14111 21.7085 0
      vertex -4.14111 21.7085 15
      vertex -2.76985 21.9257 15
    endloop
  endfacet
  facet normal -0.218102 0.975926 0
    outer loop
      vertex -5.49603 21.4057 0
      vertex -4.14111 21.7085 15
      vertex -4.14111 21.7085 0
    endloop
  endfacet
  facet normal -0.218102 0.975926 0
    outer loop
      vertex -5.49603 21.4057 0
      vertex -5.49603 21.4057 15
      vertex -4.14111 21.7085 15
    endloop
  endfacet
  facet normal -0.27903 0.960282 0
    outer loop
      vertex -6.82927 21.0183 0
      vertex -5.49603 21.4057 15
      vertex -5.49603 21.4057 0
    endloop
  endfacet
  facet normal -0.27903 0.960282 0
    outer loop
      vertex -6.82927 21.0183 0
      vertex -6.82927 21.0183 15
      vertex -5.49603 21.4057 15
    endloop
  endfacet
  facet normal -0.338747 0.940878 0
    outer loop
      vertex -8.13554 20.548 0
      vertex -6.82927 21.0183 15
      vertex -6.82927 21.0183 0
    endloop
  endfacet
  facet normal -0.338747 0.940878 0
    outer loop
      vertex -8.13554 20.548 0
      vertex -8.13554 20.548 15
      vertex -6.82927 21.0183 15
    endloop
  endfacet
  facet normal -0.397098 0.917776 0
    outer loop
      vertex -9.40971 19.9967 0
      vertex -8.13554 20.548 15
      vertex -8.13554 20.548 0
    endloop
  endfacet
  facet normal -0.397098 0.917776 0
    outer loop
      vertex -9.40971 19.9967 0
      vertex -9.40971 19.9967 15
      vertex -8.13554 20.548 15
    endloop
  endfacet
  facet normal -0.454003 0.891 0
    outer loop
      vertex -10.6467 19.3664 0
      vertex -9.40971 19.9967 15
      vertex -9.40971 19.9967 0
    endloop
  endfacet
  facet normal -0.454003 0.891 0
    outer loop
      vertex -10.6467 19.3664 0
      vertex -10.6467 19.3664 15
      vertex -9.40971 19.9967 15
    endloop
  endfacet
  facet normal -0.509052 0.860736 0
    outer loop
      vertex -11.8418 18.6596 0
      vertex -10.6467 19.3664 15
      vertex -10.6467 19.3664 0
    endloop
  endfacet
  facet normal -0.509052 0.860736 0
    outer loop
      vertex -11.8418 18.6596 0
      vertex -11.8418 18.6596 15
      vertex -10.6467 19.3664 15
    endloop
  endfacet
  facet normal -0.562042 0.827109 0
    outer loop
      vertex -12.9901 17.8793 0
      vertex -11.8418 18.6596 15
      vertex -11.8418 18.6596 0
    endloop
  endfacet
  facet normal -0.562042 0.827109 0
    outer loop
      vertex -12.9901 17.8793 0
      vertex -12.9901 17.8793 15
      vertex -11.8418 18.6596 15
    endloop
  endfacet
  facet normal -0.612943 0.790127 0
    outer loop
      vertex -14.0871 17.0283 0
      vertex -12.9901 17.8793 15
      vertex -12.9901 17.8793 0
    endloop
  endfacet
  facet normal -0.612943 0.790127 0
    outer loop
      vertex -14.0871 17.0283 0
      vertex -14.0871 17.0283 15
      vertex -12.9901 17.8793 15
    endloop
  endfacet
  facet normal -0.661305 0.750117 0
    outer loop
      vertex -15.1285 16.1102 0
      vertex -14.0871 17.0283 15
      vertex -14.0871 17.0283 0
    endloop
  endfacet
  facet normal -0.661305 0.750117 0
    outer loop
      vertex -15.1285 16.1102 0
      vertex -15.1285 16.1102 15
      vertex -14.0871 17.0283 15
    endloop
  endfacet
  facet normal -0.707107 0.707107 0
    outer loop
      vertex -16.1102 15.1285 0
      vertex -15.1285 16.1102 15
      vertex -15.1285 16.1102 0
    endloop
  endfacet
  facet normal -0.707107 0.707107 0
    outer loop
      vertex -16.1102 15.1285 0
      vertex -16.1102 15.1285 15
      vertex -15.1285 16.1102 15
    endloop
  endfacet
  facet normal -0.750117 0.661305 0
    outer loop
      vertex -17.0283 14.0871 0
      vertex -16.1102 15.1285 15
      vertex -16.1102 15.1285 0
    endloop
  endfacet
  facet normal -0.750117 0.661305 0
    outer loop
      vertex -17.0283 14.0871 0
      vertex -17.0283 14.0871 15
      vertex -16.1102 15.1285 15
    endloop
  endfacet
  facet normal -0.790127 0.612943 0
    outer loop
      vertex -17.8793 12.9901 0
      vertex -17.0283 14.0871 15
      vertex -17.0283 14.0871 0
    endloop
  endfacet
  facet normal -0.790127 0.612943 0
    outer loop
      vertex -17.8793 12.9901 0
      vertex -17.8793 12.9901 15
      vertex -17.0283 14.0871 15
    endloop
  endfacet
  facet normal -0.827109 0.562042 0
    outer loop
      vertex -18.6596 11.8418 0
      vertex -17.8793 12.9901 15
      vertex -17.8793 12.9901 0
    endloop
  endfacet
  facet normal -0.827109 0.562042 0
    outer loop
      vertex -18.6596 11.8418 0
      vertex -18.6596 11.8418 15
      vertex -17.8793 12.9901 15
    endloop
  endfacet
  facet normal -0.860736 0.509052 0
    outer loop
      vertex -19.3664 10.6467 0
      vertex -18.6596 11.8418 15
      vertex -18.6596 11.8418 0
    endloop
  endfacet
  facet normal -0.860736 0.509052 0
    outer loop
      vertex -19.3664 10.6467 0
      vertex -19.3664 10.6467 15
      vertex -18.6596 11.8418 15
    endloop
  endfacet
  facet normal -0.891 0.454003 0
    outer loop
      vertex -19.9967 9.40971 0
      vertex -19.3664 10.6467 15
      vertex -19.3664 10.6467 0
    endloop
  endfacet
  facet normal -0.891 0.454003 0
    outer loop
      vertex -19.9967 9.40971 0
      vertex -19.9967 9.40971 15
      vertex -19.3664 10.6467 15
    endloop
  endfacet
  facet normal -0.917776 0.397098 0
    outer loop
      vertex -20.548 8.13554 0
      vertex -19.9967 9.40971 15
      vertex -19.9967 9.40971 0
    endloop
  endfacet
  facet normal -0.917776 0.397098 0
    outer loop
      vertex -20.548 8.13554 0
      vertex -20.548 8.13554 15
      vertex -19.9967 9.40971 15
    endloop
  endfacet
  facet normal -0.940878 0.338747 0
    outer loop
      vertex -21.0183 6.82927 0
      vertex -20.548 8.13554 15
      vertex -20.548 8.13554 0
    endloop
  endfacet
  facet normal -0.940878 0.338747 0
    outer loop
      vertex -21.0183 6.82927 0
      vertex -21.0183 6.82927 15
      vertex -20.548 8.13554 15
    endloop
  endfacet
  facet normal -0.960282 0.27903 0
    outer loop
      vertex -21.4057 5.49603 0
      vertex -21.0183 6.82927 15
      vertex -21.0183 6.82927 0
    endloop
  endfacet
  facet normal -0.960282 0.27903 0
    outer loop
      vertex -21.4057 5.49603 0
      vertex -21.4057 5.49603 15
      vertex -21.0183 6.82927 15
    endloop
  endfacet
  facet normal -0.975926 0.218102 0
    outer loop
      vertex -21.7085 4.14111 0
      vertex -21.4057 5.49603 15
      vertex -21.4057 5.49603 0
    endloop
  endfacet
  facet normal -0.975926 0.218102 0
    outer loop
      vertex -21.7085 4.14111 0
      vertex -21.7085 4.14111 15
      vertex -21.4057 5.49603 15
    endloop
  endfacet
  facet normal -0.987687 0.156444 0
    outer loop
      vertex -21.9257 2.76985 0
      vertex -21.7085 4.14111 15
      vertex -21.7085 4.14111 0
    endloop
  endfacet
  facet normal -0.987687 0.156444 0
    outer loop
      vertex -21.9257 2.76985 0
      vertex -21.9257 2.76985 15
      vertex -21.7085 4.14111 15
    endloop
  endfacet
  facet normal -0.995559 0.0941401 0
    outer loop
      vertex -22.0564 1.38766 0
      vertex -21.9257 2.76985 15
      vertex -21.9257 2.76985 0
    endloop
  endfacet
  facet normal -0.995559 0.0941401 0
    outer loop
      vertex -22.0564 1.38766 0
      vertex -22.0564 1.38766 15
      vertex -21.9257 2.76985 15
    endloop
  endfacet
  facet normal -0.999507 0.0314043 0
    outer loop
      vertex -22.1 0 0
      vertex -22.0564 1.38766 15
      vertex -22.0564 1.38766 0
    endloop
  endfacet
  facet normal -0.999507 0.0314043 0
    outer loop
      vertex -22.1 0 0
      vertex -22.1 0 15
      vertex -22.0564 1.38766 15
    endloop
  endfacet
  facet normal -0.999507 -0.0314043 0
    outer loop
      vertex -22.0564 -1.38766 0
      vertex -22.1 0 15
      vertex -22.1 0 0
    endloop
  endfacet
  facet normal -0.999507 -0.0314043 0
    outer loop
      vertex -22.0564 -1.38766 0
      vertex -22.0564 -1.38766 15
      vertex -22.1 0 15
    endloop
  endfacet
  facet normal -0.995559 -0.0941401 0
    outer loop
      vertex -21.9257 -2.76985 0
      vertex -22.0564 -1.38766 15
      vertex -22.0564 -1.38766 0
    endloop
  endfacet
  facet normal -0.995559 -0.0941401 0
    outer loop
      vertex -21.9257 -2.76985 0
      vertex -21.9257 -2.76985 15
      vertex -22.0564 -1.38766 15
    endloop
  endfacet
  facet normal -0.987687 -0.156444 0
    outer loop
      vertex -21.7085 -4.14111 0
      vertex -21.9257 -2.76985 15
      vertex -21.9257 -2.76985 0
    endloop
  endfacet
  facet normal -0.987687 -0.156444 0
    outer loop
      vertex -21.7085 -4.14111 0
      vertex -21.7085 -4.14111 15
      vertex -21.9257 -2.76985 15
    endloop
  endfacet
  facet normal -0.975926 -0.218102 0
    outer loop
      vertex -21.4057 -5.49603 0
      vertex -21.7085 -4.14111 15
      vertex -21.7085 -4.14111 0
    endloop
  endfacet
  facet normal -0.975926 -0.218102 0
    outer loop
      vertex -21.4057 -5.49603 0
      vertex -21.4057 -5.49603 15
      vertex -21.7085 -4.14111 15
    endloop
  endfacet
  facet normal -0.960282 -0.27903 0
    outer loop
      vertex -21.0183 -6.82927 0
      vertex -21.4057 -5.49603 15
      vertex -21.4057 -5.49603 0
    endloop
  endfacet
  facet normal -0.960282 -0.27903 0
    outer loop
      vertex -21.0183 -6.82927 0
      vertex -21.0183 -6.82927 15
      vertex -21.4057 -5.49603 15
    endloop
  endfacet
  facet normal -0.940878 -0.338747 0
    outer loop
      vertex -20.548 -8.13554 0
      vertex -21.0183 -6.82927 15
      vertex -21.0183 -6.82927 0
    endloop
  endfacet
  facet normal -0.940878 -0.338747 0
    outer loop
      vertex -20.548 -8.13554 0
      vertex -20.548 -8.13554 15
      vertex -21.0183 -6.82927 15
    endloop
  endfacet
  facet normal -0.917776 -0.397098 0
    outer loop
      vertex -19.9967 -9.40971 0
      vertex -20.548 -8.13554 15
      vertex -20.548 -8.13554 0
    endloop
  endfacet
  facet normal -0.917776 -0.397098 0
    outer loop
      vertex -19.9967 -9.40971 0
      vertex -19.9967 -9.40971 15
      vertex -20.548 -8.13554 15
    endloop
  endfacet
  facet normal -0.891 -0.454003 0
    outer loop
      vertex -19.3664 -10.6467 0
      vertex -19.9967 -9.40971 15
      vertex -19.9967 -9.40971 0
    endloop
  endfacet
  facet normal -0.891 -0.454003 0
    outer loop
      vertex -19.3664 -10.6467 0
      vertex -19.3664 -10.6467 15
      vertex -19.9967 -9.40971 15
    endloop
  endfacet
  facet normal -0.860736 -0.509052 0
    outer loop
      vertex -18.6596 -11.8418 0
      vertex -19.3664 -10.6467 15
      vertex -19.3664 -10.6467 0
    endloop
  endfacet
  facet normal -0.860736 -0.509052 0
    outer loop
      vertex -18.6596 -11.8418 0
      vertex -18.6596 -11.8418 15
      vertex -19.3664 -10.6467 15
    endloop
  endfacet
  facet normal -0.827109 -0.562042 0
    outer loop
      vertex -17.8793 -12.9901 0
      vertex -18.6596 -11.8418 15
      vertex -18.6596 -11.8418 0
    endloop
  endfacet
  facet normal -0.827109 -0.562042 0
    outer loop
      vertex -17.8793 -12.9901 0
      vertex -17.8793 -12.9901 15
      vertex -18.6596 -11.8418 15
    endloop
  endfacet
  facet normal -0.790127 -0.612943 0
    outer loop
      vertex -17.0283 -14.0871 0
      vertex -17.8793 -12.9901 15
      vertex -17.8793 -12.9901 0
    endloop
  endfacet
  facet normal -0.790127 -0.612943 0
    outer loop
      vertex -17.0283 -14.0871 0
      vertex -17.0283 -14.0871 15
      vertex -17.8793 -12.9901 15
    endloop
  endfacet
  facet normal -0.750117 -0.661305 0
    outer loop
      vertex -16.1102 -15.1285 0
      vertex -17.0283 -14.0871 15
      vertex -17.0283 -14.0871 0
    endloop
  endfacet
  facet normal -0.750117 -0.661305 0
    outer loop
      vertex -16.1102 -15.1285 0
      vertex -16.1102 -15.1285 15
      vertex -17.0283 -14.0871 15
    endloop
  endfacet
  facet normal -0.707107 -0.707107 0
    outer loop
      vertex -15.1285 -16.1102 0
      vertex -16.1102 -15.1285 15
      vertex -16.1102 -15.1285 0
    endloop
  endfacet
  facet normal -0.707107 -0.707107 0
    outer loop
      vertex -15.1285 -16.1102 0
      vertex -15.1285 -16.1102 15
      vertex -16.1102 -15.1285 15
    endloop
  endfacet
  facet normal -0.661305 -0.750117 0
    outer loop
      vertex -14.0871 -17.0283 0
      vertex -15.1285 -16.1102 15
      vertex -15.1285 -16.1102 0
    endloop
  endfacet
  facet normal -0.661305 -0.750117 0
    outer loop
      vertex -14.0871 -17.0283 0
      vertex -14.0871 -17.0283 15
      vertex -15.1285 -16.1102 15
    endloop
  endfacet
  facet normal -0.612943 -0.790127 0
    outer loop
      vertex -12.9901 -17.8793 0
      vertex -14.0871 -17.0283 15
      vertex -14.0871 -17.0283 0
    endloop
  endfacet
  facet normal -0.612943 -0.790127 0
    outer loop
      vertex -12.9901 -17.8793 0
      vertex -12.9901 -17.8793 15
      vertex -14.0871 -17.0283 15
    endloop
  endfacet
  facet normal -0.562042 -0.827109 0
    outer loop
      vertex -11.8418 -18.6596 0
      vertex -12.9901 -17.8793 15
      vertex -12.9901 -17.8793 0
    endloop
  endfacet
  facet normal -0.562042 -0.827109 0
    outer loop
      vertex -11.8418 -18.6596 0
      vertex -11.8418 -18.6596 15
      vertex -12.9901 -17.8793 15
    endloop
  endfacet
  facet normal -0.509052 -0.860736 0
    outer loop
      vertex -10.6467 -19.3664 0
      vertex -11.8418 -18.6596 15
      vertex -11.8418 -18.6596 0
    endloop
  endfacet
  facet normal -0.509052 -0.860736 0
    outer loop
      vertex -10.6467 -19.3664 0
      vertex -10.6467 -19.3664 15
      vertex -11.8418 -18.6596 15
    endloop
  endfacet
  facet normal -0.454003 -0.891 0
    outer loop
      vertex -9.40971 -19.9967 0
      vertex -10.6467 -19.3664 15
      vertex -10.6467 -19.3664 0
    endloop
  endfacet
  facet normal -0.454003 -0.891 0
    outer loop
      vertex -9.40971 -19.9967 0
      vertex -9.40971 -19.9967 15
      vertex -10.6467 -19.3664 15
    endloop
  endfacet
  facet normal -0.397098 -0.917776 0
    outer loop
      vertex -8.13554 -20.548 0
      vertex -9.40971 -19.9967 15
      vertex -9.40971 -19.9967 0
    endloop
  endfacet
  facet normal -0.397098 -0.917776 0
    outer loop
      vertex -8.13554 -20.548 0
      vertex -8.13554 -20.548 15
      vertex -9.40971 -19.9967 15
    endloop
  endfacet
  facet normal -0.338747 -0.940878 0
    outer loop
      vertex -6.82927 -21.0183 0
      vertex -8.13554 -20.548 15
      vertex -8.13554 -20.548 0
    endloop
  endfacet
  facet normal -0.338747 -0.940878 0
    outer loop
      vertex -6.82927 -21.0183 0
      vertex -6.82927 -21.0183 15
      vertex -8.13554 -20.548 15
    endloop
  endfacet
  facet normal -0.27903 -0.960282 0
    outer loop
      vertex -5.49603 -21.4057 0
      vertex -6.82927 -21.0183 15
      vertex -6.82927 -21.0183 0
    endloop
  endfacet
  facet normal -0.27903 -0.960282 0
    outer loop
      vertex -5.49603 -21.4057 0
      vertex -5.49603 -21.4057 15
      vertex -6.82927 -21.0183 15
    endloop
  endfacet
  facet normal -0.218102 -0.975926 0
    outer loop
      vertex -4.14111 -21.7085 0
      vertex -5.49603 -21.4057 15
      vertex -5.49603 -21.4057 0
    endloop
  endfacet
  facet normal -0.218102 -0.975926 0
    outer loop
      vertex -4.14111 -21.7085 0
      vertex -4.14111 -21.7085 15
      vertex -5.49603 -21.4057 15
    endloop
  endfacet
  facet normal -0.156444 -0.987687 0
    outer loop
      vertex -2.76985 -21.9257 0
      vertex -4.14111 -21.7085 15
      vertex -4.14111 -21.7085 0
    endloop
  endfacet
  facet normal -0.156444 -0.987687 0
    outer loop
      vertex -2.76985 -21.9257 0
      vertex -2.76985 -21.9257 15
      vertex -4.14111 -21.7085 15
    endloop
  endfacet
  facet normal -0.0941401 -0.995559 0
    outer loop
      vertex -1.38766 -22.0564 0
      vertex -2.76985 -21.9257 15
      vertex -2.76985 -21.9257 0
    endloop
  endfacet
  facet normal -0.0941401 -0.995559 0
    outer loop
      vertex -1.38766 -22.0564 0
      vertex -1.38766 -22.0564 15
      vertex -2.76985 -21.9257 15
    endloop
  endfacet
  facet normal -0.0314043 -0.999507 0
    outer loop
      vertex 0 -22.1 0
      vertex -1.38766 -22.0564 15
      vertex -1.38766 -22.0564 0
    endloop
  endfacet
  facet normal -0.0314043 -0.999507 0
    outer loop
      vertex 0 -22.1 0
      vertex 0 -22.1 15
      vertex -1.38766 -22.0564 15
    endloop
  endfacet
  facet normal 0.0314043 -0.999507 0
    outer loop
      vertex 1.38766 -22.0564 0
      vertex 0 -22.1 15
      vertex 0 -22.1 0
    endloop
  endfacet
  facet normal 0.0314043 -0.999507 0
    outer loop
      vertex 1.38766 -22.0564 0
      vertex 1.38766 -22.0564 15
      vertex 0 -22.1 15
    endloop
  endfacet
  facet normal 0.207909 0.978148 -0
    outer loop
      vertex -5.25328 -16.168 0
      vertex -5.25328 -16.168 15
      vertex -1.77698 -16.9069 0
    endloop
  endfacet
  facet normal 0.207909 0.978148 0
    outer loop
      vertex -1.77698 -16.9069 15
      vertex -1.77698 -16.9069 0
      vertex -5.25328 -16.168 15
    endloop
  endfacet
  facet normal 0.406752 0.913538 -0
    outer loop
      vertex -8.5 -14.7224 0
      vertex -8.5 -14.7224 15
      vertex -5.25328 -16.168 0
    endloop
  endfacet
  facet normal 0.406752 0.913538 0
    outer loop
      vertex -5.25328 -16.168 15
      vertex -5.25328 -16.168 0
      vertex -8.5 -14.7224 15
    endloop
  endfacet
  facet normal 0.587775 0.809024 -0
    outer loop
      vertex -11.3752 -12.6335 0
      vertex -11.3752 -12.6335 15
      vertex -8.5 -14.7224 0
    endloop
  endfacet
  facet normal 0.587775 0.809024 0
    outer loop
      vertex -8.5 -14.7224 15
      vertex -8.5 -14.7224 0
      vertex -11.3752 -12.6335 15
    endloop
  endfacet
  facet normal 0.743146 0.669129 -0
    outer loop
      vertex -13.7533 -9.99234 0
      vertex -13.7533 -9.99234 15
      vertex -11.3752 -12.6335 0
    endloop
  endfacet
  facet normal 0.743146 0.669129 0
    outer loop
      vertex -11.3752 -12.6335 15
      vertex -11.3752 -12.6335 0
      vertex -13.7533 -9.99234 15
    endloop
  endfacet
  facet normal 0.866023 0.500004 -0
    outer loop
      vertex -15.5303 -6.91452 0
      vertex -15.5303 -6.91452 15
      vertex -13.7533 -9.99234 0
    endloop
  endfacet
  facet normal 0.866023 0.500004 0
    outer loop
      vertex -13.7533 -9.99234 15
      vertex -13.7533 -9.99234 0
      vertex -15.5303 -6.91452 15
    endloop
  endfacet
  facet normal 0.95106 0.309006 -0
    outer loop
      vertex -16.6285 -3.53448 0
      vertex -16.6285 -3.53448 15
      vertex -15.5303 -6.91452 0
    endloop
  endfacet
  facet normal 0.95106 0.309006 0
    outer loop
      vertex -15.5303 -6.91452 15
      vertex -15.5303 -6.91452 0
      vertex -16.6285 -3.53448 15
    endloop
  endfacet
  facet normal 0.994522 0.104532 -0
    outer loop
      vertex -17 0 0
      vertex -17 0 15
      vertex -16.6285 -3.53448 0
    endloop
  endfacet
  facet normal 0.994522 0.104532 0
    outer loop
      vertex -16.6285 -3.53448 15
      vertex -16.6285 -3.53448 0
      vertex -17 0 15
    endloop
  endfacet
  facet normal 0.994522 -0.104532 0
    outer loop
      vertex -16.6285 3.53448 0
      vertex -16.6285 3.53448 15
      vertex -17 0 0
    endloop
  endfacet
  facet normal 0.994522 -0.104532 0
    outer loop
      vertex -17 0 15
      vertex -17 0 0
      vertex -16.6285 3.53448 15
    endloop
  endfacet
  facet normal 0.95106 -0.309006 0
    outer loop
      vertex -15.5303 6.91452 0
      vertex -15.5303 6.91452 15
      vertex -16.6285 3.53448 0
    endloop
  endfacet
  facet normal 0.95106 -0.309006 0
    outer loop
      vertex -16.6285 3.53448 15
      vertex -16.6285 3.53448 0
      vertex -15.5303 6.91452 15
    endloop
  endfacet
  facet normal 0.866023 -0.500004 0
    outer loop
      vertex -13.7533 9.99234 0
      vertex -13.7533 9.99234 15
      vertex -15.5303 6.91452 0
    endloop
  endfacet
  facet normal 0.866023 -0.500004 0
    outer loop
      vertex -15.5303 6.91452 15
      vertex -15.5303 6.91452 0
      vertex -13.7533 9.99234 15
    endloop
  endfacet
  facet normal 0.743146 -0.669129 0
    outer loop
      vertex -11.3752 12.6335 0
      vertex -11.3752 12.6335 15
      vertex -13.7533 9.99234 0
    endloop
  endfacet
  facet normal 0.743146 -0.669129 0
    outer loop
      vertex -13.7533 9.99234 15
      vertex -13.7533 9.99234 0
      vertex -11.3752 12.6335 15
    endloop
  endfacet
  facet normal 0.587775 -0.809024 0
    outer loop
      vertex -8.5 14.7224 0
      vertex -8.5 14.7224 15
      vertex -11.3752 12.6335 0
    endloop
  endfacet
  facet normal 0.587775 -0.809024 0
    outer loop
      vertex -11.3752 12.6335 15
      vertex -11.3752 12.6335 0
      vertex -8.5 14.7224 15
    endloop
  endfacet
  facet normal 0.406752 -0.913538 0
    outer loop
      vertex -5.25328 16.168 0
      vertex -5.25328 16.168 15
      vertex -8.5 14.7224 0
    endloop
  endfacet
  facet normal 0.406752 -0.913538 0
    outer loop
      vertex -8.5 14.7224 15
      vertex -8.5 14.7224 0
      vertex -5.25328 16.168 15
    endloop
  endfacet
  facet normal 0.207909 -0.978148 0
    outer loop
      vertex -1.77698 16.9069 0
      vertex -1.77698 16.9069 15
      vertex -5.25328 16.168 0
    endloop
  endfacet
  facet normal 0.207909 -0.978148 0
    outer loop
      vertex -5.25328 16.168 15
      vertex -5.25328 16.168 0
      vertex -1.77698 16.9069 15
    endloop
  endfacet
  facet normal 0 -1 0
    outer loop
      vertex 1.77698 16.9069 0
      vertex 1.77698 16.9069 15
      vertex -1.77698 16.9069 0
    endloop
  endfacet
  facet normal 0 -1 0
    outer loop
      vertex -1.77698 16.9069 15
      vertex -1.77698 16.9069 0
      vertex 1.77698 16.9069 15
    endloop
  endfacet
  facet normal -0.207909 -0.978148 0
    outer loop
      vertex 5.25328 16.168 0
      vertex 5.25328 16.168 15
      vertex 1.77698 16.9069 0
    endloop
  endfacet
  facet normal -0.207909 -0.978148 -0
    outer loop
      vertex 1.77698 16.9069 15
      vertex 1.77698 16.9069 0
      vertex 5.25328 16.168 15
    endloop
  endfacet
  facet normal -0.406752 -0.913538 0
    outer loop
      vertex 8.5 14.7224 0
      vertex 8.5 14.7224 15
      vertex 5.25328 16.168 0
    endloop
  endfacet
  facet normal -0.406752 -0.913538 -0
    outer loop
      vertex 5.25328 16.168 15
      vertex 5.25328 16.168 0
      vertex 8.5 14.7224 15
    endloop
  endfacet
  facet normal -0.587775 -0.809024 0
    outer loop
      vertex 11.3752 12.6335 0
      vertex 11.3752 12.6335 15
      vertex 8.5 14.7224 0
    endloop
  endfacet
  facet normal -0.587775 -0.809024 -0
    outer loop
      vertex 8.5 14.7224 15
      vertex 8.5 14.7224 0
      vertex 11.3752 12.6335 15
    endloop
  endfacet
  facet normal -0.743146 -0.669129 0
    outer loop
      vertex 13.7533 9.99234 0
      vertex 13.7533 9.99234 15
      vertex 11.3752 12.6335 0
    endloop
  endfacet
  facet normal -0.743146 -0.669129 -0
    outer loop
      vertex 11.3752 12.6335 15
      vertex 11.3752 12.6335 0
      vertex 13.7533 9.99234 15
    endloop
  endfacet
  facet normal -0.866023 -0.500004 0
    outer loop
      vertex 15.5303 6.91452 0
      vertex 15.5303 6.91452 15
      vertex 13.7533 9.99234 0
    endloop
  endfacet
  facet normal -0.866023 -0.500004 -0
    outer loop
      vertex 13.7533 9.99234 15
      vertex 13.7533 9.99234 0
      vertex 15.5303 6.91452 15
    endloop
  endfacet
  facet normal -0.95106 -0.309006 0
    outer loop
      vertex 16.6285 3.53448 0
      vertex 16.6285 3.53448 15
      vertex 15.5303 6.91452 0
    endloop
  endfacet
  facet normal -0.95106 -0.309006 -0
    outer loop
      vertex 15.5303 6.91452 15
      vertex 15.5303 6.91452 0
      vertex 16.6285 3.53448 15
    endloop
  endfacet
  facet normal -0.994522 -0.104532 0
    outer loop
      vertex 17 0 0
      vertex 17 0 15
      vertex 16.6285 3.53448 0
    endloop
  endfacet
  facet normal -0.994522 -0.104532 -0
    outer loop
      vertex 16.6285 3.53448 15
      vertex 16.6285 3.53448 0
      vertex 17 0 15
    endloop
  endfacet
  facet normal -0.994522 0.104532 0
    outer loop
      vertex 16.6285 -3.53448 0
      vertex 16.6285 -3.53448 15
      vertex 17 0 0
    endloop
  endfacet
  facet normal -0.994522 0.104532 0
    outer loop
      vertex 17 0 15
      vertex 17 0 0
      vertex 16.6285 -3.53448 15
    endloop
  endfacet
  facet normal -0.95106 0.309006 0
    outer loop
      vertex 15.5303 -6.91452 0
      vertex 15.5303 -6.91452 15
      vertex 16.6285 -3.53448 0
    endloop
  endfacet
  facet normal -0.95106 0.309006 0
    outer loop
      vertex 16.6285 -3.53448 15
      vertex 16.6285 -3.53448 0
      vertex 15.5303 -6.91452 15
    endloop
  endfacet
  facet normal -0.866023 0.500004 0
    outer loop
      vertex 13.7533 -9.99234 0
      vertex 13.7533 -9.99234 15
      vertex 15.5303 -6.91452 0
    endloop
  endfacet
  facet normal -0.866023 0.500004 0
    outer loop
      vertex 15.5303 -6.91452 15
      vertex 15.5303 -6.91452 0
      vertex 13.7533 -9.99234 15
    endloop
  endfacet
  facet normal -0.743146 0.669129 0
    outer loop
      vertex 11.3752 -12.6335 0
      vertex 11.3752 -12.6335 15
      vertex 13.7533 -9.99234 0
    endloop
  endfacet
  facet normal -0.743146 0.669129 0
    outer loop
      vertex 13.7533 -9.99234 15
      vertex 13.7533 -9.99234 0
      vertex 11.3752 -12.6335 15
    endloop
  endfacet
  facet normal -0.587775 0.809024 0
    outer loop
      vertex 8.5 -14.7224 0
      vertex 8.5 -14.7224 15
      vertex 11.3752 -12.6335 0
    endloop
  endfacet
  facet normal -0.587775 0.809024 0
    outer loop
      vertex 11.3752 -12.6335 15
      vertex 11.3752 -12.6335 0
      vertex 8.5 -14.7224 15
    endloop
  endfacet
  facet normal -0.406752 0.913538 0
    outer loop
      vertex 5.25328 -16.168 0
      vertex 5.25328 -16.168 15
      vertex 8.5 -14.7224 0
    endloop
  endfacet
  facet normal -0.406752 0.913538 0
    outer loop
      vertex 8.5 -14.7224 15
      vertex 8.5 -14.7224 0
      vertex 5.25328 -16.168 15
    endloop
  endfacet
  facet normal -0.207909 0.978148 0
    outer loop
      vertex 1.77698 -16.9069 0
      vertex 1.77698 -16.9069 15
      vertex 5.25328 -16.168 0
    endloop
  endfacet
  facet normal -0.207909 0.978148 0
    outer loop
      vertex 5.25328 -16.168 15
      vertex 5.25328 -16.168 0
      vertex 1.77698 -16.9069 15
    endloop
  endfacet
  facet normal 0 1 0
    outer loop
      vertex -1.77698 -16.9069 0
      vertex -1.77698 -16.9069 15
      vertex 1.77698 -16.9069 0
    endloop
  endfacet
  facet normal 0 1 0
    outer loop
      vertex 1.77698 -16.9069 15
      vertex 1.77698 -16.9069 0
      vertex -1.77698 -16.9069 15
    endloop
  endfacet
endsolid OpenSCAD_Model
