<?xml version="1.0" encoding="UTF-8" standalone="no"?>
<!-- Created with Inkscape (http://www.inkscape.org/) -->

<svg
   xmlns:dc="http://purl.org/dc/elements/1.1/"
   xmlns:cc="http://creativecommons.org/ns#"
   xmlns:rdf="http://www.w3.org/1999/02/22-rdf-syntax-ns#"
   xmlns:svg="http://www.w3.org/2000/svg"
   xmlns="http://www.w3.org/2000/svg"
   xmlns:sodipodi="http://sodipodi.sourceforge.net/DTD/sodipodi-0.dtd"
   xmlns:inkscape="http://www.inkscape.org/namespaces/inkscape"
   version="1.1"
   id="svg3863"
   width="959.5"
   height="828.46179"
   viewBox="0 0 959.49998 828.46179"
   sodipodi:docname="round_holder_width_45_half.svg"
   inkscape:version="0.92.3 (2405546, 2018-03-11)">
  <metadata
     id="metadata3869">
    <rdf:RDF>
      <cc:Work
         rdf:about="">
        <dc:format>image/svg+xml</dc:format>
        <dc:type
           rdf:resource="http://purl.org/dc/dcmitype/StillImage" />
        <dc:title></dc:title>
      </cc:Work>
    </rdf:RDF>
  </metadata>
  <defs
     id="defs3867" />
  <sodipodi:namedview
     pagecolor="#ffffff"
     bordercolor="#666666"
     borderopacity="1"
     objecttolerance="10"
     gridtolerance="10"
     guidetolerance="10"
     inkscape:pageopacity="0"
     inkscape:pageshadow="2"
     inkscape:window-width="1920"
     inkscape:window-height="1052"
     id="namedview3865"
     showgrid="false"
     showguides="true"
     inkscape:guide-bbox="true"
     inkscape:zoom="0.64"
     inkscape:cx="895.82209"
     inkscape:cy="265.35883"
     inkscape:window-x="0"
     inkscape:window-y="0"
     inkscape:window-maximized="1"
     inkscape:current-layer="svg3863"
     fit-margin-top="0"
     fit-margin-left="0"
     fit-margin-right="0"
     fit-margin-bottom="0">
    <sodipodi:guide
       position="-11.3444,956.07088"
       orientation="1,0"
       id="guide3920"
       inkscape:locked="false" />
    <sodipodi:guide
       position="1929.2806,909.19589"
       orientation="1,0"
       id="guide3922"
       inkscape:locked="false" />
    <sodipodi:guide
       position="1233.1881,1.3839947"
       orientation="0,1"
       id="guide3972"
       inkscape:locked="false" />
  </sodipodi:namedview>
  <g
     id="g3900">
    <path
       sodipodi:nodetypes="cscssssssssccsssccc"
       inkscape:connector-curvature="0"
       id="path3924"
       d="m 4.0728,827.0778 c 268.1417,0.7047 498.53825,1.06497 583.54523,0.84147 l 132.99287,-0.3497 58.3659,-67.0467 c 68.49475,-78.682 85.2361,-118.1256 113.2497,-184.7643 32.7679,-77.9481 49.89423,-141.0861 60.50234,-223.0482 5.29651,-40.92274 6.07956,-82.03159 7.16913,-118.69465 0.045,-1.51425 -0.60005,-3.01244 -0.58893,-5.24395 0.007,-1.35033 -1.48592,-1.06986 -2.0517,-1.08929 -1.45774,-0.0501 -8.22478,0.82385 -9.65117,0.90776 -1.88254,0.1108 -13.61733,-0.0824 -15.74624,0.63734 -1.64836,0.55731 -0.12652,-45.89542 -0.0604,-49.81514 15.18115,-0.66575 19.23317,-0.11064 23.15565,-0.61631 0.74753,0.0677 3.98804,-0.26978 3.98804,-0.26978 -1.6528,3.03423 1.68849,0.37367 1.62472,-3.78491 -0.43719,-28.5113 0.0262,-41.28332 -2.51858,-76.321073 C 954.6324,51.373367 952.04982,2.9962545 951.54471,2.5563545 951.03961,2.1163545 343.74995,4.8577665 0,2.7368665 2.1409,180.88603 4.0728,827.0778 4.0728,827.0778 Z"
       style="stroke-width:3.125" />
  </g>
</svg>
