<?xml version="1.0" encoding="UTF-8" standalone="no"?>
<!-- Created with Inkscape (http://www.inkscape.org/) -->

<svg
   xmlns:dc="http://purl.org/dc/elements/1.1/"
   xmlns:cc="http://creativecommons.org/ns#"
   xmlns:rdf="http://www.w3.org/1999/02/22-rdf-syntax-ns#"
   xmlns:svg="http://www.w3.org/2000/svg"
   xmlns="http://www.w3.org/2000/svg"
   xmlns:sodipodi="http://sodipodi.sourceforge.net/DTD/sodipodi-0.dtd"
   xmlns:inkscape="http://www.inkscape.org/namespaces/inkscape"
   version="1.1"
   id="svg3863"
   width="1919.2734"
   height="828.46179"
   viewBox="0 0 1919.2734 828.46179"
   sodipodi:docname="round_holder_width_90.svg"
   inkscape:version="0.92.3 (2405546, 2018-03-11)">
  <metadata
     id="metadata3869">
    <rdf:RDF>
      <cc:Work
         rdf:about="">
        <dc:format>image/svg+xml</dc:format>
        <dc:type
           rdf:resource="http://purl.org/dc/dcmitype/StillImage" />
        <dc:title></dc:title>
      </cc:Work>
    </rdf:RDF>
  </metadata>
  <defs
     id="defs3867" />
  <sodipodi:namedview
     pagecolor="#ffffff"
     bordercolor="#666666"
     borderopacity="1"
     objecttolerance="10"
     gridtolerance="10"
     guidetolerance="10"
     inkscape:pageopacity="0"
     inkscape:pageshadow="2"
     inkscape:window-width="1920"
     inkscape:window-height="1053"
     id="namedview3865"
     showgrid="false"
     showguides="true"
     inkscape:guide-bbox="true"
     inkscape:zoom="5.12"
     inkscape:cx="43.898286"
     inkscape:cy="754.76326"
     inkscape:window-x="1920"
     inkscape:window-y="27"
     inkscape:window-maximized="1"
     inkscape:current-layer="svg3863"
     fit-margin-top="0"
     fit-margin-left="0"
     fit-margin-right="0"
     fit-margin-bottom="0">
    <sodipodi:guide
       position="-11.3444,956.07088"
       orientation="1,0"
       id="guide3920"
       inkscape:locked="false" />
    <sodipodi:guide
       position="1929.2806,909.19589"
       orientation="1,0"
       id="guide3922"
       inkscape:locked="false" />
    <sodipodi:guide
       position="1233.1881,1.3839947"
       orientation="0,1"
       id="guide3972"
       inkscape:locked="false" />
  </sodipodi:namedview>
  <path
     style="fill:none;stroke:#000000;stroke-width:1px;stroke-linecap:butt;stroke-linejoin:miter;stroke-opacity:1"
     d="M 9.0094698,9.4855665 -3.1439202,184.05257 0.17063979,294.53797 15.6386,412.75747 l 27.62136,103.8563 50.8233,120.4291 51.92815,77.3398 53.03301,69.6058 17.67767,22.0971 1484.92421,16.5728 97.2272,-149.1553 59.6622,-129.268 34.2504,-123.7437 20.8695,-160.6005 9.375,-131.25 -6.25,-131.2500035 z"
     id="path3895"
     inkscape:connector-curvature="0" />
  <path
     style="stroke-width:3.125"
     d="m 996.1083,827.78957 c -268.1417,0.7047 -536.03825,0.3532 -621.04523,0.1297 l -132.99287,-0.3497 -58.3659,-67.0467 C 115.20955,681.84087 98.4682,642.39727 70.4546,575.75857 37.6867,497.81047 20.56037,434.67247 9.9522598,352.71037 c -11.42205,-88.2509 -12.75451,-151.9344 -5.32053,-254.290003 3.41697,-47.047 6.1376592,-87.4625 6.6427692,-87.9024 0.5051,-0.44 282.656651,-0.9727005 626.406601,-3.0936005 343.75,-2.1208 771.25,-4.7828 950,-5.9157 178.75,-1.13279999 325.4967,-1.76669999 326.1037,-1.40859999 0.6071,0.358 2.5297,28.96910049 4.2725,63.58000049 3.8692,76.840403 -1.3399,159.370803 -17.8483,282.780303 -14.8722,111.1776 -32.246,173.2318 -73.3924,262.1358 -23.5588,50.9031 -37.5202,75.6189 -77.2288,136.7188 l -50.6809,82.3169 -131.9561,0.8018 c -42.3587,0.2573 -299.9831,-1.3559 -570.8425,-0.6441 z"
     id="path3924"
     inkscape:connector-curvature="0"
     sodipodi:nodetypes="sscsssscsscsscscss" />
  <path
     style="stroke-width:2.20970869"
     d="M 218.70204,799.26539 C 130.2746,697.70057 112.01485,670.45614 76.51329,587.11283 39.542519,500.32042 21.371695,433.90144 10.149932,344.53792 2.7336262,285.47882 0.30817875,238.40013 1.7825448,182.12433 3.2395706,126.51041 11.094704,16.425945 13.782281,13.956009 14.676888,13.133849 277.92223,10.824915 598.77193,8.8250457 919.62164,6.8251765 1319.8551,4.242153 1488.1797,3.0849933 1656.5042,1.9278336 1820.7787,0.96917576 1853.2339,0.9546425 l 59.0096,-0.0264241 1.2029,7.1815532 c 0.6617,3.9498544 2.1977,28.6709524 3.4134,54.9357734 3.4958,75.522515 -1.8574,163.752715 -16.6769,274.863245 -16.8294,126.1791 -35.5598,190.22214 -85.9532,293.89126 -16.2552,33.43997 -24.6107,47.68472 -83.9252,143.07864 l -32.6316,52.48058 -727.33202,-0.088 -727.33205,-0.0879 z"
     id="path4018"
     inkscape:connector-curvature="0" />
</svg>
